<svg width="100" height="40" viewBox="0 0 200 60" fill="none" xmlns="http://www.w3.org/2000/svg">
<path d="M193.167 0H6.83333C3.05939 0 0 3.17502 0 7.09161V52.9084C0 56.825 3.05939 60 6.83333 60H193.167C196.941 60 200 56.825 200 52.9084V7.09161C200 3.17502 196.941 0 193.167 0Z" fill="black"/>
<path d="M100.308 32.1808C99.2203 32.1855 98.1585 32.5127 97.2565 33.1211C96.3546 33.7294 95.6528 34.5916 95.2399 35.5988C94.8271 36.606 94.7215 37.7131 94.9366 38.7803C95.1517 39.8476 95.6778 40.8271 96.4485 41.5952C97.2192 42.3634 98.2 42.8858 99.2671 43.0964C100.334 43.3071 101.44 43.1965 102.444 42.7788C103.448 42.3611 104.306 41.6549 104.91 40.7493C105.514 39.8437 105.836 38.7794 105.836 37.6907C105.846 36.9623 105.709 36.2394 105.435 35.5649C105.16 34.8904 104.753 34.278 104.237 33.7641C103.722 33.2501 103.108 32.8452 102.433 32.5732C101.758 32.3012 101.035 32.1677 100.308 32.1808ZM100.308 41.0417C99.6373 41.0903 98.9676 40.9355 98.3861 40.5977C97.8046 40.2598 97.3382 39.7545 97.0476 39.1476C96.7571 38.5406 96.6558 37.8601 96.7571 37.1948C96.8583 36.5294 97.1574 35.9099 97.6153 35.4171C98.0732 34.9243 98.6687 34.5809 99.3244 34.4317C99.98 34.2825 100.665 34.3344 101.291 34.5806C101.917 34.8268 102.454 35.2559 102.833 35.8121C103.211 36.3683 103.414 37.0257 103.414 37.6987C103.429 38.1219 103.361 38.544 103.213 38.9407C103.065 39.3374 102.84 39.701 102.551 40.0107C102.263 40.3205 101.916 40.5702 101.531 40.7458C101.146 40.9213 100.731 41.0191 100.308 41.0337V41.0417ZM88.2374 32.1808C87.1498 32.1855 86.088 32.5127 85.1861 33.1211C84.2841 33.7294 83.5824 34.5916 83.1695 35.5988C82.7566 36.606 82.651 37.7131 82.8661 38.7803C83.0812 39.8476 83.6073 40.8271 84.378 41.5952C85.1488 42.3634 86.1295 42.8858 87.1966 43.0964C88.2636 43.3071 89.3691 43.1965 90.3734 42.7788C91.3777 42.3611 92.236 41.6549 92.8397 40.7493C93.4434 39.8437 93.7657 38.7794 93.7657 37.6907C93.7755 36.9623 93.639 36.2394 93.3644 35.5649C93.0897 34.8904 92.6825 34.278 92.1668 33.7641C91.6512 33.2501 91.0377 32.8452 90.3626 32.5732C89.6876 32.3012 88.9649 32.1677 88.2374 32.1808ZM88.2374 41.0417C87.5668 41.0903 86.8971 40.9355 86.3156 40.5977C85.7341 40.2598 85.2677 39.7545 84.9772 39.1476C84.6866 38.5406 84.5854 37.8601 84.6866 37.1948C84.7878 36.5294 85.0869 35.9099 85.5448 35.4171C86.0027 34.9243 86.5983 34.5809 87.2539 34.4317C87.9095 34.2825 88.5948 34.3344 89.2205 34.5806C89.8463 34.8268 90.3835 35.2559 90.7621 35.8121C91.1408 36.3683 91.3434 37.0257 91.3435 37.6987C91.3586 38.1219 91.2902 38.544 91.1422 38.9407C90.9942 39.3374 90.7695 39.701 90.481 40.0107C90.1925 40.3205 89.8459 40.5702 89.4609 40.7458C89.0759 40.9213 88.6602 41.0191 88.2374 41.0337V41.0417ZM73.8896 33.8724V36.2085H79.4742C79.3985 37.3076 78.9499 38.3478 78.2028 39.1568C77.6431 39.7275 76.97 40.1743 76.2271 40.4685C75.4842 40.7627 74.6879 40.8976 73.8896 40.8645C72.242 40.8645 70.6619 40.2093 69.4969 39.0431C68.3318 37.8768 67.6773 36.295 67.6773 34.6457C67.6773 32.9964 68.3318 31.4146 69.4969 30.2484C70.6619 29.0821 72.242 28.4269 73.8896 28.4269C75.4577 28.403 76.9712 29.0027 78.0982 30.0944L79.7076 28.443C78.9361 27.6812 78.0207 27.0808 77.0149 26.6769C76.0091 26.2731 74.9329 26.0738 73.8494 26.0908C71.5829 26.0908 69.4092 26.9922 67.8065 28.5965C66.2038 30.2009 65.3035 32.3768 65.3035 34.6457C65.3035 36.9146 66.2038 39.0906 67.8065 40.6949C69.4092 42.2993 71.5829 43.2006 73.8494 43.2006C74.9579 43.2461 76.0633 43.054 77.0916 42.6372C78.12 42.2205 79.0475 41.5886 79.8122 40.784C81.1756 39.2963 81.901 37.3321 81.832 35.3143C81.8369 34.8256 81.7965 34.3375 81.7113 33.8563L73.8896 33.8724ZM132.496 35.6849C132.165 34.6881 131.535 33.8174 130.693 33.1906C129.851 32.5638 128.837 32.2113 127.788 32.1808C127.081 32.1841 126.381 32.3313 125.733 32.6134C125.084 32.8955 124.499 33.3067 124.013 33.822C123.528 34.3372 123.152 34.9458 122.909 35.6109C122.666 36.2759 122.56 36.9835 122.598 37.6907C122.582 38.4146 122.711 39.1344 122.979 39.8071C123.247 40.4798 123.647 41.0915 124.157 41.6058C124.666 42.1201 125.273 42.5264 125.943 42.8004C126.613 43.0744 127.331 43.2105 128.054 43.2006C128.959 43.2101 129.852 42.9942 130.652 42.5724C131.453 42.1505 132.136 41.5359 132.641 40.784L130.766 39.5354C130.484 40.0025 130.086 40.3885 129.611 40.6553C129.135 40.9222 128.599 41.0609 128.054 41.0578C127.494 41.0795 126.941 40.932 126.466 40.6346C125.991 40.3373 125.616 39.9037 125.39 39.3904L132.745 36.3374L132.496 35.6849ZM124.988 37.5296C124.962 37.1278 125.016 36.7248 125.147 36.3442C125.279 35.9637 125.484 35.6131 125.753 35.3131C126.021 35.0131 126.346 34.7696 126.71 34.5969C127.073 34.4242 127.467 34.3258 127.869 34.3074C128.287 34.2805 128.704 34.3778 129.068 34.587C129.431 34.7962 129.725 35.108 129.913 35.4835L124.988 37.5296ZM119.009 42.8703H121.423V26.6708H119.009V42.8703ZM115.042 33.4132H114.961C114.594 33.0137 114.145 32.6971 113.646 32.4846C113.146 32.2721 112.607 32.1685 112.065 32.1808C110.656 32.257 109.331 32.8708 108.361 33.8957C107.391 34.9207 106.85 36.2788 106.85 37.6907C106.85 39.1025 107.391 40.4607 108.361 41.4856C109.331 42.5106 110.656 43.1243 112.065 43.2006C112.609 43.2161 113.15 43.1124 113.651 42.8968C114.151 42.6811 114.598 42.3587 114.961 41.952H115.042V42.7575C115.042 44.868 113.923 45.9797 112.105 45.9797C111.5 45.9667 110.913 45.7724 110.419 45.422C109.926 45.0717 109.549 44.5813 109.337 44.0142L107.26 44.8922C107.661 45.8541 108.339 46.6745 109.207 47.2485C110.076 47.8225 111.096 48.124 112.137 48.1144C114.978 48.1144 117.376 46.4469 117.376 42.3789V32.5191H115.074L115.042 33.4132ZM112.274 41.0337C111.438 40.9624 110.66 40.5798 110.092 39.9615C109.525 39.3432 109.21 38.5342 109.21 37.6947C109.21 36.8552 109.525 36.0462 110.092 35.4279C110.66 34.8096 111.438 34.4269 112.274 34.3557C113.883 34.3557 115.211 35.7735 115.211 37.7148C115.244 38.1249 115.194 38.5374 115.065 38.9279C114.936 39.3185 114.73 39.6791 114.459 39.9885C114.188 40.298 113.858 40.5499 113.488 40.7294C113.118 40.9089 112.716 41.0124 112.306 41.0337H112.274ZM143.826 26.6708H138.04V42.8703H140.454V36.7321H143.826C144.503 36.7592 145.178 36.6492 145.812 36.4086C146.445 36.168 147.023 35.8018 147.512 35.332C148 34.8622 148.389 34.2984 148.654 33.6745C148.92 33.0507 149.056 32.3796 149.056 31.7015C149.056 31.0233 148.92 30.3522 148.654 29.7284C148.389 29.1045 148 28.5407 147.512 28.0709C147.023 27.6011 146.445 27.2349 145.812 26.9943C145.178 26.7538 144.503 26.6437 143.826 26.6708ZM143.89 34.4765H140.454V28.9264H143.89C144.267 28.906 144.644 28.9628 144.998 29.093C145.352 29.2233 145.676 29.4244 145.949 29.6841C146.223 29.9438 146.441 30.2566 146.59 30.6035C146.739 30.9503 146.816 31.3239 146.816 31.7015C146.816 32.079 146.739 32.4526 146.59 32.7994C146.441 33.1463 146.223 33.4591 145.949 33.7188C145.676 33.9785 145.352 34.1796 144.998 34.3099C144.644 34.4402 144.267 34.4969 143.89 34.4765ZM158.818 32.1485C157.935 32.0968 157.057 32.3041 156.291 32.7448C155.525 33.1855 154.904 33.8406 154.504 34.6296L156.653 35.5318C156.864 35.1397 157.186 34.818 157.578 34.6062C157.969 34.3944 158.414 34.3018 158.858 34.3396C159.166 34.3016 159.479 34.3257 159.779 34.4105C160.078 34.4953 160.357 34.6391 160.6 34.8335C160.843 35.0278 161.045 35.2688 161.193 35.5423C161.342 35.8158 161.434 36.1162 161.465 36.426V36.5871C160.686 36.1769 159.818 35.964 158.938 35.9668C156.629 35.9668 154.279 37.2396 154.279 39.6159C154.279 41.7828 156.17 43.1764 158.303 43.1764C158.913 43.2091 159.522 43.0768 160.064 42.7933C160.606 42.5099 161.062 42.0858 161.384 41.5653H161.465V42.8139H163.791V36.6112C163.758 33.7596 161.618 32.1485 158.85 32.1485H158.818ZM158.528 41.0095C157.723 41.0095 156.629 40.6148 156.629 39.6401C156.629 38.3915 158.005 37.9082 159.188 37.9082C159.982 37.8754 160.77 38.0621 161.465 38.4479C161.379 39.1584 161.035 39.8128 160.5 40.2877C159.965 40.7625 159.275 41.025 158.56 41.0256L158.528 41.0095ZM172.208 32.4869L169.512 39.5273H169.423L166.551 32.503H163.951L168.257 42.3225L165.843 47.7841H168.361L175 32.4788L172.208 32.4869ZM150.481 42.8542H152.895V26.6708H150.481V42.8542Z" fill="white"/>
<path d="M25.5998 13.7803C25.1792 14.2871 24.9664 14.9349 25.0043 15.5927V44.2298C24.9664 44.8876 25.1792 45.5354 25.5998 46.0423L25.6964 46.1389L41.7179 30.1006V29.722L25.6964 13.6836L25.5998 13.7803Z" fill="#5BC9F4"/>
<path d="M47.061 35.4512L41.7178 30.1024V29.7238L47.061 24.375L47.1817 24.4475L53.5066 28.0402C55.3172 29.0713 55.3172 30.7549 53.5066 31.7779L47.1978 35.3787L47.061 35.4512Z" fill="url(#paint0_linear)"/>
<path d="M47.198 35.3759L41.718 29.9062L25.624 46.0171C26.2195 46.6535 27.2334 46.726 28.3117 46.0977L47.198 35.3759Z" fill="url(#paint1_linear)"/>
<path d="M47.1977 24.4473L28.2873 13.7013C27.1849 13.073 26.1951 13.1455 25.5996 13.7819L41.6936 29.8928L47.1977 24.4473Z" fill="url(#paint2_linear)"/>
<path d="M71.4354 14.6916C70.9299 14.2404 70.2779 13.9885 69.6007 13.9828C69.2228 13.988 68.8496 14.0682 68.5029 14.2188C68.1562 14.3694 67.8428 14.5874 67.5808 14.8601C67.3188 15.1328 67.1135 15.4549 66.9768 15.8076C66.8401 16.1603 66.7746 16.5367 66.7842 16.9149C66.7735 17.2931 66.8383 17.6695 66.9747 18.0223C67.1111 18.375 67.3165 18.697 67.5788 18.9693C67.8411 19.2416 68.155 19.4588 68.5022 19.6081C68.8494 19.7575 69.2228 19.836 69.6007 19.8391C69.8953 19.8666 70.1924 19.8347 70.4745 19.7453C70.7566 19.6559 71.0179 19.5108 71.2429 19.3185C71.468 19.1263 71.6523 18.8908 71.7849 18.626C71.9174 18.3612 71.9956 18.0724 72.0148 17.7769H69.8662V16.8827H73.2057C73.2057 19.5652 71.7734 20.8218 69.6007 20.8218C68.5952 20.7761 67.646 20.3441 66.9506 19.6157C66.2553 18.8873 65.8672 17.9185 65.8672 16.9109C65.8672 15.9033 66.2553 14.9346 66.9506 14.2061C67.646 13.4777 68.5952 13.0457 69.6007 13C70.5444 13.0048 71.4519 13.3642 72.1435 14.0069L71.4354 14.6916Z" fill="white"/>
<path d="M79.1123 13.0859V14.0526H75.636V16.4692H78.6697V17.4278H75.636V19.7317H79.2249V20.7225H74.606V13.0859H79.1123Z" fill="white"/>
<path d="M85.8235 13.0859V14.0606H83.4738V20.7225H82.4357V14.0606H80.1182V13.0859H85.8235Z" fill="white"/>
<path d="M90.708 13.0859V20.7225H89.686V13.0859H90.708Z" fill="white"/>
<path d="M97.7168 13.0859V14.0606H95.4074V20.7225H94.3693V14.0606H92.0598V13.0859H97.7168Z" fill="white"/>
<path d="M104.967 13.0004C105.743 12.9892 106.504 13.2093 107.155 13.6326C107.805 14.0559 108.316 14.6634 108.62 15.3777C108.925 16.092 109.01 16.8809 108.866 17.644C108.721 18.4071 108.353 19.1099 107.809 19.6631C107.264 20.2162 106.567 20.5947 105.807 20.7504C105.047 20.9061 104.258 20.8319 103.54 20.5374C102.822 20.2428 102.208 19.7411 101.776 19.0961C101.344 18.4511 101.113 17.692 101.113 16.9153C101.106 16.4042 101.201 15.8969 101.392 15.4227C101.583 14.9485 101.865 14.5169 102.224 14.1528C102.582 13.7887 103.009 13.4994 103.48 13.3016C103.951 13.1038 104.456 13.0014 104.967 13.0004ZM104.967 19.8234C105.345 19.8224 105.719 19.746 106.067 19.5986C106.415 19.4512 106.73 19.2358 106.994 18.965C107.257 18.6942 107.465 18.3734 107.603 18.0215C107.741 17.6695 107.808 17.2935 107.8 16.9153C107.829 16.5272 107.778 16.1371 107.65 15.7696C107.521 15.4021 107.319 15.0651 107.054 14.7796C106.79 14.4942 106.47 14.2665 106.113 14.1107C105.757 13.955 105.372 13.8746 104.983 13.8746C104.594 13.8746 104.21 13.955 103.853 14.1107C103.497 14.2665 103.176 14.4942 102.912 14.7796C102.648 15.0651 102.445 15.4021 102.317 15.7696C102.188 16.1371 102.137 16.5272 102.167 16.9153C102.157 17.2911 102.222 17.665 102.358 18.0153C102.494 18.3656 102.699 18.6853 102.959 18.9559C103.22 19.2265 103.531 19.4426 103.876 19.5915C104.221 19.7404 104.592 19.8192 104.967 19.8234Z" fill="white"/>
<path d="M114.913 20.7225L111.445 14.987V20.7225H110.415V13.0859H111.437L114.873 18.7811V13.0859H115.895V20.7225H114.913Z" fill="white"/>
<defs>
<linearGradient id="paint0_linear" x1="52.3317" y1="29.9091" x2="21.0451" y2="29.9091" gradientUnits="userSpaceOnUse">
<stop stop-color="#FEE000"/>
<stop offset="0.42" stop-color="#FBBC0E"/>
<stop offset="0.78" stop-color="#FAA418"/>
<stop offset="1" stop-color="#F99B1C"/>
</linearGradient>
<linearGradient id="paint1_linear" x1="44.2126" y1="32.8787" x2="14.7539" y2="62.3146" gradientUnits="userSpaceOnUse">
<stop stop-color="#EF4547"/>
<stop offset="1" stop-color="#C6186D"/>
</linearGradient>
<linearGradient id="paint2_linear" x1="14.6477" y1="-2.65117" x2="38.7092" y2="21.3771" gradientUnits="userSpaceOnUse">
<stop stop-color="#279E6F"/>
<stop offset="0.04" stop-color="#2BA06F"/>
<stop offset="0.46" stop-color="#53B26C"/>
<stop offset="0.8" stop-color="#6BBD6A"/>
<stop offset="1" stop-color="#74C169"/>
</linearGradient>
</defs>
</svg>
