<svg width="100" height="40" viewBox="0 0 200 60" fill="none" xmlns="http://www.w3.org/2000/svg">
<path d="M193.167 0H6.83333C3.05939 0 0 3.17502 0 7.09161V52.9084C0 56.825 3.05939 60 6.83333 60H193.167C196.941 60 200 56.825 200 52.9084V7.09161C200 3.17502 196.941 0 193.167 0Z" fill="black"/>
<path d="M69.1113 17.4462L68.3454 20.0017H66.6436L69.5282 11.0234H71.613L74.5233 19.9847H72.7618L71.9109 17.4292L69.1113 17.4462ZM71.6641 16.2111L70.9663 13.9963C70.7876 13.4512 70.643 12.8464 70.5153 12.2927C70.3877 12.8123 70.2515 13.4341 70.0899 13.9963L69.4176 16.2452L71.6641 16.2111Z" fill="white"/>
<path d="M76.9568 13.5078L78.0119 16.7874C78.184 17.322 78.3289 17.865 78.4459 18.4144C78.565 17.8777 78.7097 17.3751 78.8799 16.7874L79.918 13.5078H81.6199L79.1522 19.9817H77.595L75.1953 13.5078H76.9568Z" fill="white"/>
<path d="M88.1978 18.4246C88.1872 18.9462 88.2214 19.4677 88.2999 19.9835H86.8278L86.7087 19.2679C86.4763 19.5476 86.1827 19.7699 85.8507 19.9176C85.5187 20.0653 85.1571 20.1345 84.7941 20.1198C84.5328 20.1349 84.2711 20.0963 84.0254 20.0062C83.7796 19.9162 83.5548 19.7766 83.365 19.5962C83.1752 19.4158 83.0244 19.1983 82.9219 18.9573C82.8193 18.7162 82.7672 18.4566 82.7688 18.1946C82.7688 16.5676 84.2154 15.7328 86.6066 15.7414V15.6477C86.6066 15.2217 86.4279 14.5147 85.2876 14.5147C84.6875 14.5235 84.1003 14.691 83.5857 15.0003L83.2624 13.9355C83.9781 13.5411 84.7857 13.3441 85.6025 13.3647C87.6787 13.3647 88.2744 14.6766 88.2744 16.0991L88.1978 18.4246ZM86.5981 16.8147C85.4493 16.8147 84.3431 17.0447 84.3431 18.0243C84.3299 18.1498 84.3447 18.2767 84.3866 18.3958C84.4284 18.5149 84.4961 18.6232 84.5849 18.7129C84.6737 18.8026 84.7812 18.8714 84.8998 18.9144C85.0184 18.9573 85.1451 18.9733 85.2706 18.9613C85.5524 18.9656 85.8285 18.8818 86.0604 18.7214C86.2923 18.5611 86.4683 18.3322 86.564 18.0669C86.5808 17.9482 86.5808 17.8278 86.564 17.7091L86.5981 16.8147Z" fill="white"/>
<path d="M91.312 12.5743C91.196 12.5813 91.0799 12.5644 90.9707 12.5248C90.8614 12.4851 90.7615 12.4235 90.677 12.3436C90.5925 12.2638 90.5252 12.1676 90.4793 12.0607C90.4334 11.9539 90.4098 11.8388 90.41 11.7225C90.3963 11.5383 90.4384 11.3542 90.5307 11.1942C90.623 11.0342 90.7613 10.9058 90.9276 10.8256C91.0938 10.7454 91.2804 10.7171 91.4629 10.7446C91.6454 10.772 91.8155 10.8538 91.9509 10.9793C92.0863 11.1048 92.1808 11.2683 92.2222 11.4483C92.2635 11.6284 92.2497 11.8167 92.1826 11.9888C92.1155 12.1609 91.9982 12.3088 91.8459 12.4133C91.6937 12.5177 91.5136 12.5738 91.329 12.5743H91.312ZM90.4611 19.9853V13.5113H92.1374V19.9853H90.4611Z" fill="white"/>
<path d="M94.4861 10.5273H96.1199V19.9827H94.4861V10.5273Z" fill="white"/>
<path d="M103.506 18.4246C103.494 18.9466 103.531 19.4686 103.617 19.9835H102.136L102.017 19.268C101.784 19.5466 101.49 19.7682 101.158 19.9159C100.827 20.0635 100.465 20.1332 100.103 20.1198C99.8409 20.1349 99.5789 20.0963 99.3326 20.0063C99.0864 19.9163 98.8611 19.7769 98.6707 19.5966C98.4802 19.4163 98.3286 19.199 98.2251 18.9579C98.1216 18.7168 98.0684 18.4571 98.0689 18.1946C98.0689 16.5677 99.5154 15.7329 101.907 15.7414V15.6477C101.907 15.2218 101.736 14.5147 100.596 14.5147C99.996 14.5235 99.4089 14.6911 98.8943 15.0003L98.5794 13.9355C99.2921 13.5411 100.097 13.344 100.911 13.3648C102.987 13.3648 103.583 14.6766 103.583 16.0991L103.506 18.4246ZM101.915 16.8147C100.758 16.8147 99.6516 17.0447 99.6516 18.0243C99.6382 18.1506 99.6532 18.2784 99.6955 18.3981C99.7378 18.5179 99.8063 18.6267 99.8961 18.7166C99.9858 18.8064 100.095 18.875 100.214 18.9174C100.334 18.9597 100.461 18.9747 100.588 18.9613C100.869 18.9664 101.144 18.8827 101.375 18.7221C101.605 18.5616 101.78 18.3323 101.873 18.0669C101.893 17.9485 101.893 17.8274 101.873 17.7091L101.915 16.8147Z" fill="white"/>
<path d="M105.812 10.5273H107.446V14.3947C107.671 14.0572 107.98 13.7846 108.343 13.6038C108.706 13.423 109.109 13.3403 109.514 13.3639C111.097 13.3639 112.228 14.6758 112.211 16.6435C112.211 18.969 110.739 20.1275 109.276 20.1275C108.865 20.1497 108.457 20.0571 108.096 19.86C107.735 19.6629 107.437 19.3691 107.233 19.0116L107.157 19.9827H105.761C105.761 19.5397 105.812 18.8242 105.812 18.1768V10.5273ZM107.446 17.342C107.433 17.4694 107.433 17.5979 107.446 17.7253C107.524 18.0513 107.709 18.3417 107.971 18.5502C108.233 18.7586 108.558 18.8731 108.893 18.8753C109.922 18.8753 110.544 18.0235 110.544 16.7457C110.544 15.6043 109.999 14.6672 108.91 14.6672C108.569 14.6766 108.242 14.8001 107.979 15.0178C107.717 15.2356 107.535 15.535 107.463 15.8683C107.428 16.0077 107.408 16.1505 107.404 16.2942L107.446 17.342Z" fill="white"/>
<path d="M114.168 10.5273H115.802V19.9827H114.168V10.5273Z" fill="white"/>
<path d="M119.325 17.2061C119.325 18.3731 120.278 18.9098 121.316 18.9098C121.924 18.9181 122.529 18.8201 123.103 18.6202L123.35 19.7361C122.63 20.0202 121.861 20.1591 121.087 20.1449C120.644 20.1856 120.198 20.1294 119.78 19.9804C119.361 19.8314 118.98 19.593 118.663 19.2818C118.346 18.9707 118.1 18.5941 117.942 18.1783C117.785 17.7626 117.719 17.3175 117.751 16.8739C117.751 15.0851 118.84 13.3984 120.916 13.3984C122.993 13.3984 123.707 15.1021 123.707 16.5417C123.712 16.776 123.692 17.01 123.648 17.2402L119.325 17.2061ZM122.176 16.0562C122.201 15.8625 122.185 15.6657 122.129 15.4785C122.074 15.2914 121.98 15.1179 121.853 14.9694C121.726 14.821 121.57 14.7007 121.394 14.6164C121.218 14.5322 121.026 14.4858 120.831 14.4803C120.428 14.502 120.048 14.6773 119.77 14.9703C119.491 15.2633 119.335 15.6518 119.334 16.0562H122.176Z" fill="white"/>
<path d="M131.766 20.1295C131.328 20.1459 130.891 20.0701 130.484 19.9068C130.077 19.7436 129.709 19.4965 129.403 19.1818C129.097 18.867 128.861 18.4914 128.71 18.0795C128.558 17.6675 128.495 17.2283 128.524 16.7903C128.493 16.34 128.558 15.8883 128.715 15.4651C128.871 15.0418 129.115 14.6565 129.431 14.3345C129.747 14.0126 130.128 13.7614 130.548 13.5973C130.968 13.4333 131.418 13.3602 131.868 13.383C132.304 13.365 132.739 13.4395 133.144 13.6015C133.549 13.7635 133.916 14.0094 134.22 14.323C134.523 14.6367 134.757 15.011 134.906 15.4215C135.055 15.832 135.116 16.2694 135.085 16.7051C135.114 17.1521 135.048 17.6001 134.894 18.0203C134.739 18.4406 134.498 18.8236 134.186 19.1447C133.874 19.4658 133.498 19.7178 133.083 19.8845C132.667 20.0512 132.222 20.1288 131.775 20.1124L131.766 20.1295ZM131.817 18.9454C132.745 18.9454 133.4 18.0425 133.4 16.7221C133.4 15.717 132.949 14.5414 131.834 14.5414C130.719 14.5414 130.209 15.6744 130.209 16.7562C130.209 17.9999 130.839 18.9454 131.809 18.9454H131.817Z" fill="white"/>
<path d="M137.008 15.4343C137.008 14.6933 137.008 14.0629 136.957 13.5092H138.344L138.42 14.4803H138.463C138.681 14.1283 138.987 13.8398 139.352 13.644C139.716 13.4481 140.126 13.3517 140.539 13.3644C141.662 13.3644 142.837 14.0885 142.837 16.1414V19.9831H141.237V16.3288C141.237 15.3918 140.888 14.6933 139.995 14.6933C139.71 14.6997 139.435 14.7952 139.208 14.9664C138.98 15.1375 138.812 15.3756 138.727 15.6473C138.666 15.8135 138.637 15.9899 138.642 16.1669V19.9831H137.008V15.4343Z" fill="white"/>
<path d="M150.393 11.8516V13.5126H151.959V14.7308H150.401V17.5759C150.401 18.3766 150.614 18.777 151.252 18.777C151.467 18.7854 151.682 18.7625 151.89 18.7088V19.944C151.508 20.0665 151.109 20.1241 150.708 20.1143C150.449 20.1286 150.189 20.0891 149.946 19.9982C149.703 19.9073 149.481 19.767 149.295 19.5862C148.895 19.0676 148.709 18.4151 148.776 17.7633V14.7308H147.874V13.5126H148.785V12.303L150.393 11.8516Z" fill="white"/>
<path d="M153.771 10.5273H155.405V14.3861C155.61 14.0873 155.888 13.8466 156.213 13.6876C156.559 13.4944 156.949 13.3946 157.345 13.398C158.443 13.398 159.6 14.1221 159.6 16.2005V20.0167H157.966V16.3368C157.966 15.4083 157.617 14.6928 156.715 14.6928C156.435 14.6957 156.162 14.7847 155.934 14.9477C155.706 15.1107 155.533 15.3398 155.439 15.6043C155.393 15.7646 155.372 15.9315 155.379 16.0983V19.9827H153.746L153.771 10.5273Z" fill="white"/>
<path d="M163.106 17.2061C163.106 18.3731 164.059 18.9098 165.097 18.9098C165.708 18.9172 166.315 18.8192 166.893 18.6202L167.131 19.7361C166.411 20.0208 165.641 20.1598 164.867 20.1449C164.425 20.1856 163.979 20.1294 163.561 19.9804C163.142 19.8314 162.761 19.593 162.444 19.2818C162.126 18.9707 161.88 18.5941 161.723 18.1783C161.565 17.7626 161.5 17.3175 161.532 16.8739C161.532 15.0851 162.621 13.3984 164.697 13.3984C166.773 13.3984 167.488 15.1021 167.488 16.5417C167.49 16.7755 167.473 17.0091 167.437 17.2402L163.106 17.2061ZM165.948 16.0562C165.973 15.8625 165.957 15.6657 165.902 15.4785C165.846 15.2914 165.752 15.1179 165.625 14.9694C165.499 14.821 165.342 14.7007 165.166 14.6164C164.99 14.5322 164.799 14.4858 164.604 14.4803C164.201 14.504 163.822 14.6799 163.544 14.9725C163.266 15.265 163.109 15.6524 163.106 16.0562H165.948Z" fill="white"/>
<path d="M48.7908 28.6758C48.8064 27.3308 49.1628 26.0118 49.8266 24.8422C50.4903 23.6727 51.4398 22.691 52.586 21.9889C51.8588 20.9468 50.8985 20.089 49.7816 19.4842C48.6647 18.8793 47.4221 18.544 46.1529 18.5049C43.4554 18.2238 40.826 20.1234 39.456 20.1234C38.086 20.1234 35.9246 18.5305 33.6781 18.5816C32.2001 18.625 30.7589 19.0532 29.4965 19.8239C28.2341 20.5947 27.1942 21.6814 26.4791 22.9771C23.3647 28.3777 25.6878 36.3082 28.6661 40.6781C30.1637 42.8162 31.9081 45.2013 34.1887 45.1162C36.4692 45.031 37.2605 43.6936 39.958 43.6936C42.6555 43.6936 43.4128 45.1162 45.7444 45.0651C48.076 45.0139 49.6417 42.9184 51.0883 40.7548C52.1642 39.2357 52.9888 37.5531 53.5305 35.7716C52.1348 35.1858 50.9437 34.1991 50.1077 32.9363C49.2717 31.6734 48.8283 30.1908 48.8333 28.6758" fill="white"/>
<path d="M44.3914 15.6306C45.6996 14.0599 46.3411 12.0386 46.1784 10C44.1854 10.2133 42.3451 11.1679 41.0217 12.6748C40.3722 13.413 39.8747 14.2723 39.5578 15.2035C39.2409 16.1347 39.1109 17.1193 39.1751 18.1009C40.1746 18.1106 41.1632 17.8934 42.0667 17.4655C42.9702 17.0376 43.765 16.4103 44.3914 15.6306Z" fill="white"/>
<path d="M81.0756 44.7622H77.9697L76.2678 39.3956H70.3112L68.6859 44.7622H65.6821L71.5536 26.4648H75.1786L81.0756 44.7622ZM75.7487 37.1468L74.2085 32.3766C74.0383 31.891 73.732 30.741 73.2895 28.9692H73.23C73.0513 29.7444 72.7619 30.8944 72.379 32.3766L70.8643 37.1468H75.7487Z" fill="white"/>
<path d="M96.1798 38.017C96.2844 39.9541 95.6347 41.8563 94.3673 43.3239C93.8556 43.8799 93.2309 44.3196 92.5351 44.6135C91.8393 44.9074 91.0887 45.0486 90.3339 45.0275C89.6005 45.0863 88.8651 44.9437 88.2068 44.6149C87.5485 44.2862 86.9924 43.7838 86.5982 43.162H86.5472V50.0959H83.6199V35.93C83.6199 34.5159 83.6199 33.0763 83.5178 31.5941H86.0706L86.2323 33.6811H86.2834C86.7259 33.0021 87.3208 32.436 88.0206 32.0278C88.7205 31.6197 89.5058 31.3809 90.3142 31.3304C91.1225 31.2799 91.9315 31.4192 92.6765 31.7371C93.4216 32.055 94.0822 32.5428 94.6056 33.1615C95.6929 34.5389 96.246 36.2634 96.1628 38.017H96.1798ZM93.1845 38.1192C93.2299 37.0008 92.933 35.8952 92.3336 34.9504C92.0507 34.5369 91.6689 34.201 91.2229 33.9733C90.777 33.7456 90.2812 33.6335 89.7807 33.6471C89.0608 33.649 88.3646 33.9054 87.8151 34.3711C87.2286 34.8489 86.8232 35.5132 86.6663 36.2537C86.5872 36.5312 86.5415 36.8171 86.5302 37.1055V39.2947C86.4957 40.1827 86.7999 41.0506 87.3811 41.7224C87.6657 42.0466 88.0187 42.3034 88.4146 42.4742C88.8104 42.6451 89.2393 42.7258 89.6701 42.7105C90.1677 42.7295 90.6621 42.6232 91.1081 42.4015C91.554 42.1798 91.9373 41.8496 92.2229 41.4413C92.8867 40.4337 93.2089 39.2391 93.142 38.034" fill="white"/>
<path d="M111.309 38.017C111.414 39.9541 110.764 41.8563 109.497 43.3239C108.985 43.8799 108.36 44.3196 107.665 44.6135C106.969 44.9074 106.218 45.0486 105.463 45.0276C104.737 45.0852 104.008 44.9445 103.354 44.6205C102.701 44.2965 102.148 43.8013 101.753 43.1876H101.702V50.1215H98.775V35.93C98.775 34.516 98.775 33.0764 98.6729 31.5942H101.226L101.387 33.6812H101.447C101.889 33.0022 102.483 32.4361 103.182 32.0279C103.881 31.6198 104.666 31.3809 105.473 31.3304C106.281 31.2799 107.089 31.4192 107.834 31.7372C108.578 32.0551 109.238 32.5429 109.761 33.1616C110.848 34.5389 111.401 36.2634 111.318 38.017H111.309ZM108.34 38.1192C108.389 37.0004 108.092 35.8937 107.489 34.9504C107.207 34.5358 106.825 34.199 106.379 33.9712C105.933 33.7434 105.436 33.6319 104.936 33.6471C104.219 33.6503 103.526 33.9067 102.979 34.3712C102.392 34.8489 101.987 35.5133 101.83 36.2537C101.751 36.5312 101.705 36.8172 101.694 37.1055V39.2947C101.659 40.1828 101.963 41.0507 102.545 41.7225C102.829 42.0471 103.182 42.3042 103.578 42.4751C103.974 42.6461 104.403 42.7265 104.834 42.7106C105.331 42.7295 105.826 42.6233 106.272 42.4015C106.718 42.1798 107.101 41.8497 107.386 41.4414C108.05 40.4338 108.372 39.2391 108.305 38.034" fill="white"/>
<path d="M128.226 39.6355C128.251 40.3494 128.118 41.0601 127.837 41.7168C127.556 42.3735 127.134 42.9601 126.601 43.4346C125.205 44.57 123.434 45.1386 121.64 45.0276C119.987 45.1072 118.346 44.7143 116.908 43.8946L117.581 41.4584C118.863 42.2339 120.337 42.6351 121.835 42.6169C122.746 42.6664 123.646 42.4051 124.388 41.8758C124.683 41.6361 124.918 41.3315 125.076 40.9858C125.234 40.64 125.31 40.2625 125.299 39.8825C125.308 39.5356 125.246 39.1905 125.117 38.8684C124.988 38.5462 124.795 38.2536 124.55 38.0085C123.806 37.365 122.937 36.8835 121.997 36.5944C118.809 35.4019 117.215 33.6556 117.215 31.3557C117.199 30.6517 117.344 29.9533 117.639 29.314C117.934 28.6747 118.371 28.1114 118.917 27.6672C120.179 26.6559 121.769 26.1437 123.384 26.2276C124.811 26.1717 126.231 26.4641 127.52 27.0795L126.788 29.4646C125.716 28.8881 124.515 28.5949 123.299 28.6128C122.431 28.5614 121.574 28.8312 120.891 29.3709C120.658 29.578 120.472 29.8326 120.346 30.1177C120.22 30.4028 120.156 30.7116 120.159 31.0235C120.153 31.3672 120.227 31.7076 120.374 32.018C120.522 32.3284 120.74 32.6003 121.01 32.8123C121.812 33.4201 122.705 33.8973 123.656 34.2263C124.968 34.689 126.155 35.4467 127.128 36.4411C127.875 37.3248 128.269 38.4533 128.234 39.6099" fill="white"/>
<path d="M137.884 33.7838H134.668V40.181C134.668 41.808 135.238 42.6172 136.37 42.6172C136.808 42.6286 137.245 42.5828 137.672 42.481L137.748 44.7042C137.016 44.9476 136.247 45.0572 135.476 45.0279C134.976 45.0562 134.475 44.9765 134.008 44.7943C133.542 44.612 133.119 44.3315 132.77 43.9717C132.123 43.2732 131.8 42.0891 131.8 40.428V33.7838H129.877V31.5775H131.8V29.1839L134.668 28.332V31.5775H137.884V33.7838Z" fill="white"/>
<path d="M152.418 38.0691C152.5 39.8857 151.892 41.6661 150.716 43.0523C150.108 43.7173 149.362 44.2411 148.53 44.5869C147.698 44.9327 146.8 45.0921 145.9 45.0541C145.038 45.093 144.178 44.9415 143.381 44.6103C142.584 44.279 141.869 43.7762 141.288 43.1375C140.128 41.7961 139.519 40.0637 139.586 38.2906C139.501 36.4613 140.119 34.669 141.313 33.2818C141.919 32.6284 142.661 32.1154 143.485 31.7784C144.31 31.4415 145.198 31.2889 146.087 31.3311C146.958 31.2954 147.827 31.4516 148.631 31.7887C149.435 32.1257 150.156 32.6354 150.742 33.2818C151.904 34.6123 152.513 36.3374 152.444 38.1032L152.418 38.0691ZM149.414 38.1969C149.445 37.1026 149.174 36.021 148.632 35.0706C148.371 34.5943 147.988 34.1969 147.522 33.92C147.055 33.6432 146.523 33.4971 145.981 33.4971C145.439 33.4971 144.906 33.6432 144.44 33.92C143.974 34.1969 143.59 34.5943 143.33 35.0706C142.78 36.0398 142.509 37.1425 142.547 38.2565C142.514 39.3483 142.785 40.4278 143.33 41.3742C143.589 41.854 143.976 42.2523 144.448 42.5246C144.92 42.7969 145.458 42.9324 146.002 42.916C146.533 42.9076 147.052 42.754 147.502 42.4717C147.952 42.1894 148.316 41.7893 148.555 41.3146C149.111 40.3593 149.391 39.2681 149.363 38.1628" fill="white"/>
<path d="M161.923 34.135C161.62 34.0798 161.312 34.0513 161.004 34.0498C160.54 34.029 160.078 34.1249 159.66 34.3288C159.242 34.5326 158.882 34.8379 158.613 35.2168C158.115 35.9741 157.863 36.8664 157.889 37.7723V44.6807H154.962V35.6683C154.962 34.1435 154.962 32.7636 154.86 31.5199H157.413L157.524 34.0754H157.6C157.873 33.2509 158.382 32.5251 159.064 31.9884C159.673 31.5318 160.413 31.2838 161.174 31.2814C161.419 31.2796 161.664 31.2967 161.906 31.3325L161.923 34.135Z" fill="white"/>
<path d="M174.993 37.5417C174.998 37.9872 174.961 38.432 174.883 38.8706H166.118C166.099 39.4302 166.202 39.9872 166.421 40.5024C166.64 41.0175 166.97 41.4782 167.386 41.852C168.202 42.4901 169.219 42.8163 170.254 42.772C171.465 42.7895 172.669 42.5786 173.802 42.1501L174.262 44.186C172.86 44.7551 171.357 45.0306 169.845 44.9953C168.965 45.0439 168.084 44.9093 167.258 44.5999C166.432 44.2906 165.678 43.8132 165.046 43.1979C164.457 42.5443 164.003 41.7801 163.71 40.9495C163.418 40.1189 163.294 39.2386 163.344 38.3595C163.278 36.5657 163.854 34.8073 164.969 33.4018C165.515 32.7125 166.216 32.162 167.014 31.7949C167.813 31.4278 168.687 31.2546 169.564 31.2893C170.403 31.2411 171.24 31.4102 171.994 31.7802C172.748 32.1503 173.395 32.7088 173.87 33.4018C174.663 34.6323 175.056 36.0787 174.993 37.5417ZM172.202 36.7836C172.242 35.9949 172.046 35.2122 171.641 34.5348C171.399 34.139 171.054 33.8166 170.644 33.602C170.233 33.3874 169.772 33.2888 169.309 33.3167C168.853 33.3102 168.402 33.4154 167.996 33.6233C167.589 33.8311 167.24 34.1353 166.978 34.5092C166.484 35.1712 166.189 35.96 166.127 36.7836H172.202Z" fill="white"/>
</svg>
