<svg width="343" height="90" viewBox="0 0 343 90" fill="none" xmlns="http://www.w3.org/2000/svg">
<g clip-path="url(#clip0)">
<rect width="343" height="90" rx="5" fill="#FFFEF4"/>
<g style="mix-blend-mode:screen" opacity="0.97">
<circle cx="53.5" cy="45.5" r="59.5" fill="white"/>
</g>
<circle cx="280.5" cy="44.5" r="82.5" fill="url(#paint0_linear)"/>
<path d="M230.08 70.6037C229.26 70.6037 228.8 70.0037 228.8 69.0037V68.9237C228.8 67.9237 229.28 67.3437 230.08 67.3437C230.89 67.3437 231.36 67.9437 231.36 68.9437V69.0137C231.36 70.0037 230.89 70.6037 230.08 70.6037ZM230.07 71.7038C231.64 71.7038 232.83 70.6537 232.83 69.0037V68.9237C232.83 67.2937 231.65 66.2437 230.08 66.2437C228.51 66.2437 227.32 67.3137 227.32 68.9538V69.0337C227.32 70.6637 228.51 71.7038 230.07 71.7038ZM233.802 71.5938H235.252V68.5737C235.252 67.8037 235.722 67.4237 236.342 67.4237C236.982 67.4237 237.262 67.7637 237.262 68.4737V71.5938H238.712V68.2637C238.712 66.8637 237.982 66.2437 236.952 66.2437C236.082 66.2437 235.512 66.6737 235.252 67.1937V66.3637H233.802V71.5938ZM242.831 73.3738H244.231L247.061 66.3637H245.671L244.501 69.5037L243.231 66.3637H241.671L243.751 71.0637L242.831 73.3738ZM250.031 70.6037C249.211 70.6037 248.751 70.0037 248.751 69.0037V68.9237C248.751 67.9237 249.231 67.3437 250.031 67.3437C250.841 67.3437 251.311 67.9437 251.311 68.9437V69.0137C251.311 70.0037 250.841 70.6037 250.031 70.6037ZM250.021 71.7038C251.591 71.7038 252.781 70.6537 252.781 69.0037V68.9237C252.781 67.2937 251.601 66.2437 250.031 66.2437C248.461 66.2437 247.271 67.3137 247.271 68.9538V69.0337C247.271 70.6637 248.461 71.7038 250.021 71.7038ZM255.493 71.7038C256.353 71.7038 256.883 71.3037 257.153 70.7737V71.5938H258.593V66.3637H257.153V69.4337C257.153 70.2037 256.673 70.5837 256.063 70.5837C255.443 70.5837 255.153 70.2437 255.153 69.5337V66.3637H253.713V69.7337C253.713 71.1037 254.473 71.7038 255.493 71.7038ZM259.876 71.5938H261.326V68.9737C261.326 67.9737 261.946 67.6237 263.016 67.6337V66.2837C262.166 66.2937 261.656 66.6637 261.326 67.3637V66.3637H259.876V71.5938ZM266.315 71.5938H267.935V68.6437H270.805V71.5938H272.425V64.4437H270.805V67.3637H267.935V64.4437H266.315V71.5938ZM274.433 73.3738H275.833L278.663 66.3637H277.273L276.103 69.5037L274.833 66.3637H273.273L275.353 71.0637L274.433 73.3738ZM279.447 73.3738H280.897V70.7937C281.167 71.3037 281.757 71.7038 282.567 71.7038C283.867 71.7038 284.847 70.7337 284.847 69.0037V68.9237C284.847 67.1937 283.847 66.2437 282.567 66.2437C281.797 66.2437 281.187 66.6837 280.897 67.1837V66.3637H279.447V73.3738ZM282.137 70.5737C281.347 70.5737 280.847 70.0637 280.847 69.0137V68.9337C280.847 67.8837 281.367 67.3537 282.127 67.3537C282.857 67.3537 283.377 67.8737 283.377 68.9337V69.0137C283.377 70.0337 282.937 70.5737 282.137 70.5737ZM288.224 71.7038C289.654 71.7038 290.554 71.0737 290.724 69.9437H289.354C289.264 70.3837 288.934 70.6737 288.264 70.6737C287.474 70.6737 287.004 70.1737 286.964 69.3037H290.734V68.9037C290.734 67.0337 289.534 66.2437 288.184 66.2437C286.664 66.2437 285.494 67.3137 285.494 68.9637V69.0437C285.494 70.7137 286.644 71.7038 288.224 71.7038ZM286.984 68.4137C287.094 67.6737 287.534 67.2437 288.184 67.2437C288.874 67.2437 289.274 67.6237 289.324 68.4137H286.984ZM291.683 71.5938H293.133V68.9737C293.133 67.9737 293.753 67.6237 294.823 67.6337V66.2837C293.973 66.2937 293.463 66.6637 293.133 67.3637V66.3637H291.683V71.5938ZM295.905 71.5938H297.515V68.9937H298.425C300.055 68.9937 301.105 68.2737 301.105 66.7637V66.7237C301.105 65.2137 300.115 64.4437 298.375 64.4437H295.905V71.5938ZM297.515 67.8637V65.6737H298.335C299.105 65.6737 299.545 65.9737 299.545 66.7337V66.7737C299.545 67.4837 299.125 67.8637 298.335 67.8637H297.515ZM302.075 71.5938H303.515V63.9937H302.075V71.5938ZM306.247 71.7038C307.067 71.7038 307.527 71.3837 307.827 70.9637V71.5938H309.237V68.1837C309.237 66.7637 308.327 66.2437 307.047 66.2437C305.767 66.2437 304.787 66.7937 304.697 68.0337H306.067C306.127 67.5837 306.387 67.2937 306.957 67.2937C307.617 67.2937 307.807 67.6337 307.807 68.2537V68.4637H307.217C305.617 68.4637 304.497 68.9237 304.497 70.1437C304.497 71.2437 305.297 71.7038 306.247 71.7038ZM306.677 70.6937C306.147 70.6937 305.917 70.4437 305.917 70.0637C305.917 69.5037 306.407 69.3237 307.247 69.3237H307.807V69.7637C307.807 70.3438 307.317 70.6937 306.677 70.6937ZM310.482 71.5938H311.932V68.5737C311.932 67.8037 312.402 67.4237 313.022 67.4237C313.662 67.4237 313.942 67.7637 313.942 68.4737V71.5938H315.392V68.2637C315.392 66.8637 314.662 66.2437 313.632 66.2437C312.762 66.2437 312.192 66.6737 311.932 67.1937V66.3637H310.482V71.5938ZM318.534 71.7038C319.914 71.7038 320.734 71.1137 320.734 69.9837C320.734 68.8637 320.014 68.5337 318.704 68.3437C317.944 68.2337 317.694 68.1037 317.694 67.7737C317.694 67.4537 317.964 67.2337 318.434 67.2337C318.934 67.2337 319.174 67.4337 319.254 67.8637H320.584C320.454 66.6637 319.584 66.2437 318.424 66.2437C317.354 66.2437 316.354 66.7837 316.354 67.8737C316.354 68.8937 316.894 69.2937 318.284 69.5037C319.034 69.6137 319.344 69.7637 319.344 70.1238C319.344 70.4837 319.084 70.6937 318.524 70.6937C317.894 70.6937 317.664 70.4237 317.604 69.9537H316.254C316.304 71.0837 317.124 71.7038 318.534 71.7038Z" fill="#E5E5E5"/>
<rect x="282.932" y="50.0083" width="34.2646" height="9.87809" rx="4.93904" fill="#E5E5E5"/>
<path d="M288.026 56.5963H288.773V55.323H289.099L289.893 56.5963H290.691L289.814 55.1938C290.204 55.0784 290.496 54.8155 290.496 54.3172V54.2987C290.496 53.6159 289.999 53.2976 289.215 53.2976H288.026V56.5963ZM288.773 54.8155V53.8697H289.196C289.558 53.8697 289.763 53.985 289.763 54.3218V54.3403C289.763 54.6586 289.572 54.8155 289.196 54.8155H288.773Z" fill="#316369"/>
<path d="M291.633 56.5963H293.872V56.015H292.381V55.1938H293.514V54.6494H292.381V53.8789H293.797V53.2976H291.633V56.5963Z" fill="#316369"/>
<path d="M295.533 56.5963H296.29V53.8789H297.186V53.2976H294.636V53.8789H295.533V56.5963Z" fill="#316369"/>
<path d="M299.483 56.6471C300.379 56.6471 300.885 56.1811 300.885 55.2814V53.2976H300.128V55.2353C300.128 55.8397 299.933 56.0519 299.487 56.0519C299.032 56.0519 298.87 55.812 298.87 55.263V53.2976H298.113V55.3091C298.113 56.1857 298.61 56.6471 299.483 56.6471Z" fill="#316369"/>
<path d="M302.061 56.5963H302.809V55.323H303.134L303.928 56.5963H304.727L303.849 55.1938C304.239 55.0784 304.532 54.8155 304.532 54.3172V54.2987C304.532 53.6159 304.035 53.2976 303.25 53.2976H302.061V56.5963ZM302.809 54.8155V53.8697H303.231C303.594 53.8697 303.798 53.985 303.798 54.3218V54.3403C303.798 54.6586 303.607 54.8155 303.231 54.8155H302.809Z" fill="#316369"/>
<path d="M305.669 56.5963H306.337V54.248L307.721 56.5963H308.473V53.2976H307.805V55.4706L306.542 53.2976H305.669V56.5963Z" fill="#316369"/>
<path d="M310.836 56.6471C311.621 56.6471 312.104 56.1811 312.104 55.5952C312.104 54.9124 311.69 54.6955 310.887 54.594C310.376 54.5202 310.27 54.4095 310.27 54.1742C310.27 53.9527 310.437 53.8005 310.766 53.8005C311.096 53.8005 311.273 53.9389 311.319 54.2388H312.011C311.95 53.5836 311.514 53.2515 310.766 53.2515C310.033 53.2515 309.559 53.6713 309.559 54.2342C309.559 54.8708 309.907 55.1246 310.757 55.2353C311.245 55.3091 311.384 55.4014 311.384 55.6644C311.384 55.9227 311.166 56.1027 310.836 56.1027C310.344 56.1027 310.218 55.8581 310.186 55.5629H309.466C309.508 56.2226 309.926 56.6471 310.836 56.6471Z" fill="#316369"/>
<path d="M289.596 35.9948C288.768 35.9948 288.275 35.3728 288.275 34.2619C288.275 33.2178 288.768 32.5957 289.596 32.5957C290.425 32.5957 290.873 33.24 290.873 34.2842C290.873 35.3283 290.425 35.9948 289.596 35.9948ZM289.574 38.3054C292.172 38.3054 293.829 36.528 293.829 34.2175C293.829 31.9514 291.993 30.3296 289.596 30.3296C287.155 30.3296 285.342 32.0403 285.342 34.2842C285.342 36.5725 286.932 38.3054 289.574 38.3054ZM287.424 46.3922H289.619L300.726 30.5073H298.532L287.424 46.3922ZM298.509 44.3261C297.703 44.3261 297.21 43.7262 297.21 42.6154C297.21 41.5712 297.703 40.9491 298.509 40.9491C299.36 40.9491 299.808 41.5934 299.808 42.6154C299.808 43.6818 299.36 44.3261 298.509 44.3261ZM298.487 46.6588C301.084 46.6588 302.742 44.8815 302.742 42.571C302.742 40.2826 300.928 38.683 298.509 38.683C296.091 38.683 294.254 40.3715 294.254 42.6376C294.254 44.9259 295.844 46.6588 298.487 46.6588Z" fill="#C0D271"/>
<path d="M287.315 46.0475L287.167 46.258H287.424H289.619H289.689L289.728 46.2009L300.836 30.316L300.983 30.1054H300.726H298.532H298.462L298.422 30.1626L287.315 46.0475ZM289.596 35.5929C289.219 35.5929 288.93 35.4533 288.731 35.1952C288.529 34.9323 288.409 34.5319 288.409 33.9939C288.409 33.4909 288.528 33.1073 288.73 32.8523C288.929 32.6014 289.219 32.4615 289.596 32.4615C289.972 32.4615 290.249 32.605 290.438 32.8598C290.63 33.1203 290.739 33.5105 290.739 34.0161C290.739 34.5216 290.63 34.918 290.437 35.1844C290.248 35.4452 289.97 35.5929 289.596 35.5929ZM289.574 38.1711C290.904 38.1711 292.003 37.7154 292.77 36.9548C293.536 36.1945 293.963 35.1374 293.963 33.9494C293.963 31.5975 292.054 29.9277 289.596 29.9277C287.09 29.9277 285.208 31.6898 285.208 34.0161C285.208 35.1918 285.617 36.2328 286.373 36.98C287.129 37.7274 288.223 38.1711 289.574 38.1711ZM298.509 43.9242C298.143 43.9242 297.859 43.7897 297.663 43.5372C297.464 43.28 297.344 42.8853 297.344 42.3473C297.344 41.8444 297.463 41.4604 297.663 41.2051C297.859 40.9539 298.144 40.8149 298.509 40.8149C298.897 40.8149 299.18 40.9595 299.371 41.2117C299.566 41.4692 299.674 41.8534 299.674 42.3473C299.674 42.8646 299.565 43.26 299.37 43.5228C299.18 43.7798 298.897 43.9242 298.509 43.9242ZM298.487 46.5246C299.817 46.5246 300.916 46.0689 301.683 45.3083C302.449 44.548 302.875 43.4908 302.875 42.3029C302.875 39.9287 300.989 38.2811 298.509 38.2811C296.027 38.2811 294.12 40.0201 294.12 42.3695C294.12 43.5453 294.529 44.5863 295.286 45.3335C296.042 46.0809 297.135 46.5246 298.487 46.5246Z" stroke="#E3E3E3" stroke-width="0.267692"/>
<path d="M245.923 25H251.697V23.4904H247.851V21.3578H250.775V19.944H247.851V17.9432H251.506V16.4336H245.923V25ZM254.582 25.1318C255.564 25.1318 256.115 24.7484 256.475 24.2452V25H258.164V20.9145C258.164 19.2132 257.074 18.5901 255.54 18.5901C254.006 18.5901 252.832 19.2491 252.724 20.7347H254.366C254.438 20.1956 254.749 19.8482 255.432 19.8482C256.223 19.8482 256.451 20.2555 256.451 20.9983V21.2499H255.744C253.827 21.2499 252.485 21.8011 252.485 23.2627C252.485 24.5807 253.443 25.1318 254.582 25.1318ZM255.097 23.9217C254.462 23.9217 254.186 23.6222 254.186 23.1669C254.186 22.496 254.773 22.2803 255.78 22.2803H256.451V22.8075C256.451 23.5024 255.863 23.9217 255.097 23.9217ZM259.655 25H261.392V21.861C261.392 20.6629 262.135 20.2435 263.417 20.2555V18.6381C262.399 18.65 261.788 19.0933 261.392 19.932V18.7339H259.655V25ZM264.557 25H266.295V21.3817C266.295 20.4592 266.858 20.0039 267.601 20.0039C268.367 20.0039 268.703 20.4113 268.703 21.2619V25H270.44V21.0103C270.44 19.333 269.565 18.5901 268.331 18.5901C267.289 18.5901 266.606 19.1053 266.295 19.7283V18.7339H264.557V25ZM276.669 25.1318C277.7 25.1318 278.335 24.6525 278.658 24.0176V25H280.383V18.7339H278.658V22.4121C278.658 23.3346 278.083 23.7899 277.352 23.7899C276.609 23.7899 276.262 23.3826 276.262 22.5319V18.7339H274.537V22.7715C274.537 24.4129 275.447 25.1318 276.669 25.1318ZM281.92 27.1326H283.658V24.0415C283.981 24.6525 284.688 25.1318 285.659 25.1318C287.216 25.1318 288.39 23.9696 288.39 21.8969V21.8011C288.39 19.7283 287.192 18.5901 285.659 18.5901C284.736 18.5901 284.005 19.1173 283.658 19.7164V18.7339H281.92V27.1326ZM285.143 23.7779C284.197 23.7779 283.598 23.1669 283.598 21.9089V21.813C283.598 20.555 284.221 19.92 285.131 19.92C286.006 19.92 286.629 20.5431 286.629 21.813V21.9089C286.629 23.131 286.102 23.7779 285.143 23.7779ZM294.493 25.1198C294.961 25.1198 295.308 25.0359 295.548 24.9521V23.6102C295.344 23.6941 295.152 23.73 294.889 23.73C294.445 23.73 294.194 23.4904 294.194 22.9872V19.968H295.512V18.7339H294.194V17.3801H292.469V18.7339H291.666V19.968H292.469V23.1429C292.469 24.4489 293.175 25.1198 294.493 25.1198ZM299.645 23.8139C298.662 23.8139 298.111 23.095 298.111 21.8969V21.8011C298.111 20.603 298.686 19.9081 299.645 19.9081C300.615 19.9081 301.178 20.6269 301.178 21.825V21.9089C301.178 23.095 300.615 23.8139 299.645 23.8139ZM299.633 25.1318C301.514 25.1318 302.939 23.8738 302.939 21.8969V21.8011C302.939 19.8482 301.526 18.5901 299.645 18.5901C297.764 18.5901 296.338 19.8721 296.338 21.837V21.9329C296.338 23.8858 297.764 25.1318 299.633 25.1318Z" fill="#E5E5E5"/>
<path d="M64.0891 36V22.9254H61.5258V28.1811H55.8276V22.9254H53.2828V36H55.8276V30.5784H61.5258V36H64.0891ZM69.4747 39.5775L75.1729 26.9271H72.5543L70.323 32.2381L67.9072 26.9271H65.1596L69.0137 34.8567L66.8746 39.5775H69.4747ZM78.5581 39.5038V35.1148C79.0007 35.7234 79.9228 36.2213 81.1767 36.2213C83.74 36.2213 85.455 34.1928 85.455 31.4451C85.455 28.7527 83.9244 26.7242 81.2689 26.7242C79.9043 26.7242 78.8901 27.3328 78.4844 28.0335V26.9271H76.1055V39.5038H78.5581ZM83.0393 31.4635C83.0393 33.0863 82.0435 34.0268 80.7895 34.0268C79.5355 34.0268 78.5213 33.0679 78.5213 31.4635C78.5213 29.8592 79.5355 28.9187 80.7895 28.9187C82.0435 28.9187 83.0393 29.8592 83.0393 31.4635ZM88.6325 30.4309C88.6878 29.601 89.3885 28.6421 90.661 28.6421C92.0625 28.6421 92.6526 29.5273 92.6895 30.4309H88.6325ZM92.9292 32.7913C92.6341 33.6027 92.0071 34.1744 90.8638 34.1744C89.6467 34.1744 88.6325 33.3076 88.5771 32.109H95.0683C95.0683 32.0721 95.1052 31.7033 95.1052 31.3529C95.1052 28.4392 93.4271 26.6505 90.6241 26.6505C88.3005 26.6505 86.1614 28.5315 86.1614 31.4267C86.1614 34.4878 88.3558 36.2766 90.8454 36.2766C93.0767 36.2766 94.5151 34.9673 94.9761 33.3998L92.9292 32.7913ZM102.016 26.8902C101.831 26.8718 101.647 26.8533 101.444 26.8533C100.669 26.8533 99.4155 27.0746 98.8622 28.2733V26.9271H96.4834V36H98.936V31.8508C98.936 29.8961 100.024 29.2875 101.278 29.2875C101.499 29.2875 101.739 29.306 102.016 29.3613V26.8902ZM105.881 28.8818V25.1383H107.891C109.164 25.1383 109.938 25.8575 109.938 27.0193C109.938 28.1442 109.164 28.8818 107.891 28.8818H105.881ZM108.205 31.0763C110.787 31.0763 112.502 29.3797 112.502 27.0009C112.502 24.6404 110.787 22.9254 108.205 22.9254H103.318V36H105.863V31.0763H108.205ZM116.09 36V22.6488H113.638V36H116.09ZM117.556 33.5289C117.556 34.9489 118.736 36.2582 120.672 36.2582C122.018 36.2582 122.885 35.6312 123.346 34.912C123.346 35.2624 123.383 35.7603 123.438 36H125.688C125.633 35.6865 125.577 35.0411 125.577 34.5616V30.0989C125.577 28.2733 124.508 26.6505 121.631 26.6505C119.197 26.6505 117.888 28.218 117.74 29.6379L119.916 30.0989C119.99 29.306 120.58 28.6237 121.65 28.6237C122.682 28.6237 123.18 29.1584 123.18 29.8039C123.18 30.1174 123.014 30.3755 122.498 30.4493L120.266 30.7812C118.754 31.0025 117.556 31.9061 117.556 33.5289ZM121.189 34.4325C120.396 34.4325 120.008 33.9162 120.008 33.3814C120.008 32.6806 120.506 32.3303 121.133 32.2381L123.18 31.9246V32.3303C123.18 33.9346 122.221 34.4325 121.189 34.4325ZM129.949 30.7812C129.949 29.7301 130.576 28.9003 131.646 28.9003C132.826 28.9003 133.324 29.6932 133.324 30.7075V36H135.776V30.2833C135.776 28.2917 134.744 26.6874 132.494 26.6874C131.517 26.6874 130.429 27.1115 129.875 28.052V26.9271H127.496V36H129.949V30.7812Z" fill="url(#paint1_linear)"/>
<path d="M16.81 62.3086H17.593V59.4286H19.915V58.7896H17.593V56.5126H20.572V55.8736H16.81V62.3086ZM23.2303 62.3896C23.9863 62.3896 24.5083 62.0026 24.7243 61.5616V62.3086H25.4713V57.6016H24.7243V60.4546C24.7243 61.3006 24.0943 61.7416 23.4283 61.7416C22.6903 61.7416 22.3393 61.3726 22.3393 60.5446V57.6016H21.5923V60.5806C21.5923 61.8766 22.2943 62.3896 23.2303 62.3896ZM27.1251 62.3086H27.8721V59.4556C27.8721 58.6096 28.4931 58.1686 29.1861 58.1686C29.9421 58.1686 30.2931 58.5376 30.2931 59.3656V62.3086H31.0401V59.4196C31.0401 58.0516 30.3561 57.5206 29.3841 57.5206C28.6101 57.5206 28.0881 57.9076 27.8721 58.3486V57.6016H27.1251V62.3086ZM34.421 62.3896C35.105 62.3896 35.762 61.9576 36.032 61.4986V62.3086H36.779V55.3516H36.032V58.3576C35.762 57.8986 35.276 57.5206 34.493 57.5206C33.197 57.5206 32.297 58.5376 32.297 59.9776V60.0496C32.297 61.5166 33.188 62.3896 34.421 62.3896ZM34.502 61.7686C33.71 61.7686 33.071 61.2016 33.071 60.0136V59.9416C33.071 58.7986 33.629 58.1416 34.565 58.1416C35.483 58.1416 36.059 58.7086 36.059 59.9146V59.9866C36.059 61.1926 35.375 61.7686 34.502 61.7686ZM40.9784 62.3086H41.7254V57.6016H40.9784V62.3086ZM41.3384 56.6206C41.6084 56.6206 41.8334 56.3956 41.8334 56.1256C41.8334 55.8556 41.6084 55.6306 41.3384 55.6306C41.0684 55.6306 40.8434 55.8556 40.8434 56.1256C40.8434 56.3956 41.0684 56.6206 41.3384 56.6206ZM43.3983 62.3086H44.1453V59.4286C44.1453 58.5826 44.7753 58.1686 45.3873 58.1686C46.0353 58.1686 46.3863 58.5106 46.3863 59.3386V62.3086H47.1333V59.4286C47.1333 58.5826 47.7633 58.1686 48.3753 58.1686C49.0233 58.1686 49.3743 58.5106 49.3743 59.3386V62.3086H50.1213V59.3926C50.1213 58.0246 49.3833 57.5206 48.5373 57.5206C47.9523 57.5206 47.2503 57.7906 46.9263 58.4026C46.6833 57.7726 46.1523 57.5206 45.5493 57.5206C44.8743 57.5206 44.3613 57.8806 44.1453 58.3216V57.6016H43.3983V62.3086ZM51.7337 63.9466H52.4807V61.5346C52.7507 62.0026 53.2997 62.3896 54.0737 62.3896C55.3697 62.3896 56.2157 61.3996 56.2157 59.9596V59.8876C56.2157 58.4206 55.3067 57.5206 54.0737 57.5206C53.3897 57.5206 52.7507 57.9346 52.4807 58.3936V57.6016H51.7337V63.9466ZM54.0017 61.7686C53.0837 61.7686 52.4537 61.2016 52.4537 59.9956V59.9236C52.4537 58.7176 53.1197 58.1416 53.9927 58.1416C54.7847 58.1416 55.4417 58.7356 55.4417 59.9236V59.9956C55.4417 61.1386 54.9377 61.7686 54.0017 61.7686ZM58.6993 62.3896C59.3923 62.3896 59.8153 62.1556 60.1663 61.7146V62.3086H60.9133V59.2036C60.9133 57.8896 60.0943 57.5206 59.1943 57.5206C58.2853 57.5206 57.4303 57.9166 57.3313 58.9876H58.0783C58.1503 58.4116 58.5103 58.1416 59.1583 58.1416C59.8783 58.1416 60.1663 58.4566 60.1663 59.2036V59.5456H59.4913C58.2853 59.5456 57.1333 59.9146 57.1333 61.0036C57.1333 61.9666 57.8263 62.3896 58.6993 62.3896ZM58.7713 61.7956C58.1143 61.7956 57.8803 61.4896 57.8803 61.0036C57.8803 60.3106 58.5733 60.0766 59.5183 60.0766H60.1663V60.6616C60.1663 61.3906 59.5633 61.7956 58.7713 61.7956ZM64.4777 62.3896C65.6117 62.3896 66.4307 61.6336 66.5297 60.6166H65.8367C65.7557 61.3816 65.1527 61.7686 64.4867 61.7686C63.5777 61.7686 62.9477 61.1566 62.9477 60.0046V59.9326C62.9477 58.8256 63.6047 58.1416 64.4597 58.1416C65.1077 58.1416 65.6477 58.4206 65.7647 59.1676H66.5027C66.3587 57.9706 65.4407 57.5206 64.4597 57.5206C63.1997 57.5206 62.1737 58.4926 62.1737 59.9326V60.0046C62.1737 61.4626 63.1637 62.3896 64.4777 62.3896ZM69.2325 62.3716C69.5385 62.3716 69.7185 62.3266 69.8715 62.2726V61.6426C69.7095 61.7056 69.5295 61.7416 69.2955 61.7416C68.9175 61.7416 68.7105 61.5166 68.7105 61.0576V58.2316H69.8085V57.6016H68.7105V56.5306H67.9635V57.6016H67.2885V58.2316H67.9635V61.1296C67.9635 61.8676 68.3775 62.3716 69.2325 62.3716ZM70.9287 60.1846H72.8547V59.4826H70.9287V60.1846ZM76.0675 62.3896C76.7515 62.3896 77.4085 61.9576 77.6785 61.4986V62.3086H78.4255V55.3516H77.6785V58.3576C77.4085 57.8986 76.9225 57.5206 76.1395 57.5206C74.8435 57.5206 73.9435 58.5376 73.9435 59.9776V60.0496C73.9435 61.5166 74.8345 62.3896 76.0675 62.3896ZM76.1485 61.7686C75.3565 61.7686 74.7175 61.2016 74.7175 60.0136V59.9416C74.7175 58.7986 75.2755 58.1416 76.2115 58.1416C77.1295 58.1416 77.7055 58.7086 77.7055 59.9146V59.9866C77.7055 61.1926 77.0215 61.7686 76.1485 61.7686ZM80.0811 62.3086H80.8281V59.7256C80.8281 58.5646 81.4311 58.2676 82.3761 58.2226V57.5206C81.5301 57.5476 81.1251 57.9166 80.8281 58.4476V57.6016H80.0811V62.3086ZM83.6269 62.3086H84.3739V57.6016H83.6269V62.3086ZM83.9869 56.6206C84.2569 56.6206 84.4819 56.3956 84.4819 56.1256C84.4819 55.8556 84.2569 55.6306 83.9869 55.6306C83.7169 55.6306 83.4919 55.8556 83.4919 56.1256C83.4919 56.3956 83.7169 56.6206 83.9869 56.6206ZM87.2259 62.3086H88.1799L89.8719 57.6016H89.0979L87.7209 61.5526L86.3259 57.6016H85.5159L87.2259 62.3086ZM92.7926 62.3896C93.8546 62.3896 94.6376 61.8946 94.7996 60.9496H94.0526C93.9536 61.4986 93.5306 61.7686 92.8016 61.7686C91.8386 61.7686 91.3256 61.1746 91.2896 60.1036H94.8356V59.8606C94.8356 58.1776 93.8096 57.5206 92.7206 57.5206C91.4246 57.5206 90.5156 58.5106 90.5156 59.9326V60.0046C90.5156 61.4536 91.4606 62.3896 92.7926 62.3896ZM91.3166 59.5006C91.4426 58.6636 91.9556 58.1416 92.7206 58.1416C93.4946 58.1416 93.9986 58.5286 94.0706 59.5006H91.3166ZM96.1259 62.3086H96.8729V59.4556C96.8729 58.6096 97.4939 58.1686 98.1869 58.1686C98.9429 58.1686 99.2939 58.5376 99.2939 59.3656V62.3086H100.041V59.4196C100.041 58.0516 99.3569 57.5206 98.3849 57.5206C97.6109 57.5206 97.0889 57.9076 96.8729 58.3486V57.6016H96.1259V62.3086ZM106.137 61.7686C105.183 61.7686 104.598 61.0666 104.598 59.9956V59.9236C104.598 58.8436 105.192 58.1416 106.137 58.1416C107.073 58.1416 107.676 58.8436 107.676 59.9326V59.9956C107.676 61.0576 107.082 61.7686 106.137 61.7686ZM106.128 62.3896C107.469 62.3896 108.45 61.4086 108.45 59.9866V59.9146C108.45 58.5016 107.469 57.5206 106.137 57.5206C104.805 57.5206 103.824 58.5106 103.824 59.9236V59.9956C103.824 61.3726 104.787 62.3896 106.128 62.3896ZM109.75 63.9466H110.497V61.5346C110.767 62.0026 111.316 62.3896 112.09 62.3896C113.386 62.3896 114.232 61.3996 114.232 59.9596V59.8876C114.232 58.4206 113.323 57.5206 112.09 57.5206C111.406 57.5206 110.767 57.9346 110.497 58.3936V57.6016H109.75V63.9466ZM112.018 61.7686C111.1 61.7686 110.47 61.2016 110.47 59.9956V59.9236C110.47 58.7176 111.136 58.1416 112.009 58.1416C112.801 58.1416 113.458 58.7356 113.458 59.9236V59.9956C113.458 61.1386 112.954 61.7686 112.018 61.7686ZM115.537 63.9466H116.284V61.5346C116.554 62.0026 117.103 62.3896 117.877 62.3896C119.173 62.3896 120.019 61.3996 120.019 59.9596V59.8876C120.019 58.4206 119.11 57.5206 117.877 57.5206C117.193 57.5206 116.554 57.9346 116.284 58.3936V57.6016H115.537V63.9466ZM117.805 61.7686C116.887 61.7686 116.257 61.2016 116.257 59.9956V59.9236C116.257 58.7176 116.923 58.1416 117.796 58.1416C118.588 58.1416 119.245 58.7356 119.245 59.9236V59.9956C119.245 61.1386 118.741 61.7686 117.805 61.7686ZM123.285 61.7686C122.331 61.7686 121.746 61.0666 121.746 59.9956V59.9236C121.746 58.8436 122.34 58.1416 123.285 58.1416C124.221 58.1416 124.824 58.8436 124.824 59.9326V59.9956C124.824 61.0576 124.23 61.7686 123.285 61.7686ZM123.276 62.3896C124.617 62.3896 125.598 61.4086 125.598 59.9866V59.9146C125.598 58.5016 124.617 57.5206 123.285 57.5206C121.953 57.5206 120.972 58.5106 120.972 59.9236V59.9956C120.972 61.3726 121.935 62.3896 123.276 62.3896ZM126.899 62.3086H127.646V59.7256C127.646 58.5646 128.249 58.2676 129.194 58.2226V57.5206C128.348 57.5476 127.943 57.9166 127.646 58.4476V57.6016H126.899V62.3086ZM131.902 62.3716C132.208 62.3716 132.388 62.3266 132.541 62.2726V61.6426C132.379 61.7056 132.199 61.7416 131.965 61.7416C131.587 61.7416 131.38 61.5166 131.38 61.0576V58.2316H132.478V57.6016H131.38V56.5306H130.633V57.6016H129.958V58.2316H130.633V61.1296C130.633 61.8676 131.047 62.3716 131.902 62.3716ZM135.407 62.3896C136.163 62.3896 136.685 62.0026 136.901 61.5616V62.3086H137.648V57.6016H136.901V60.4546C136.901 61.3006 136.271 61.7416 135.605 61.7416C134.867 61.7416 134.516 61.3726 134.516 60.5446V57.6016H133.769V60.5806C133.769 61.8766 134.471 62.3896 135.407 62.3896ZM139.302 62.3086H140.049V59.4556C140.049 58.6096 140.67 58.1686 141.363 58.1686C142.119 58.1686 142.47 58.5376 142.47 59.3656V62.3086H143.217V59.4196C143.217 58.0516 142.533 57.5206 141.561 57.5206C140.787 57.5206 140.265 57.9076 140.049 58.3486V57.6016H139.302V62.3086ZM144.843 62.3086H145.59V57.6016H144.843V62.3086ZM145.203 56.6206C145.473 56.6206 145.698 56.3956 145.698 56.1256C145.698 55.8556 145.473 55.6306 145.203 55.6306C144.933 55.6306 144.708 55.8556 144.708 56.1256C144.708 56.3956 144.933 56.6206 145.203 56.6206ZM148.694 62.3716C149 62.3716 149.18 62.3266 149.333 62.2726V61.6426C149.171 61.7056 148.991 61.7416 148.757 61.7416C148.379 61.7416 148.172 61.5166 148.172 61.0576V58.2316H149.27V57.6016H148.172V56.5306H147.425V57.6016H146.75V58.2316H147.425V61.1296C147.425 61.8676 147.839 62.3716 148.694 62.3716ZM150.624 62.3086H151.371V57.6016H150.624V62.3086ZM150.984 56.6206C151.254 56.6206 151.479 56.3956 151.479 56.1256C151.479 55.8556 151.254 55.6306 150.984 55.6306C150.714 55.6306 150.489 55.8556 150.489 56.1256C150.489 56.3956 150.714 56.6206 150.984 56.6206ZM154.97 62.3896C156.032 62.3896 156.815 61.8946 156.977 60.9496H156.23C156.131 61.4986 155.708 61.7686 154.979 61.7686C154.016 61.7686 153.503 61.1746 153.467 60.1036H157.013V59.8606C157.013 58.1776 155.987 57.5206 154.898 57.5206C153.602 57.5206 152.693 58.5106 152.693 59.9326V60.0046C152.693 61.4536 153.638 62.3896 154.97 62.3896ZM153.494 59.5006C153.62 58.6636 154.133 58.1416 154.898 58.1416C155.672 58.1416 156.176 58.5286 156.248 59.5006H153.494ZM159.805 62.3896C160.948 62.3896 161.533 61.8136 161.533 60.9586C161.533 59.9596 160.849 59.7436 159.877 59.5636C159.013 59.4106 158.779 59.2396 158.779 58.8166C158.779 58.4116 159.13 58.1416 159.67 58.1416C160.264 58.1416 160.552 58.3666 160.66 58.8796H161.38C161.254 57.8626 160.525 57.5206 159.679 57.5206C158.941 57.5206 158.086 57.9706 158.086 58.8436C158.086 59.6626 158.5 60.0046 159.724 60.2296C160.453 60.3646 160.822 60.5266 160.822 61.0216C160.822 61.5256 160.507 61.7686 159.796 61.7686C159.04 61.7686 158.743 61.4176 158.689 60.8596H157.96C158.005 61.8226 158.68 62.3896 159.805 62.3896ZM166.52 62.3896C167.213 62.3896 167.636 62.1556 167.987 61.7146V62.3086H168.734V59.2036C168.734 57.8896 167.915 57.5206 167.015 57.5206C166.106 57.5206 165.251 57.9166 165.152 58.9876H165.899C165.971 58.4116 166.331 58.1416 166.979 58.1416C167.699 58.1416 167.987 58.4566 167.987 59.2036V59.5456H167.312C166.106 59.5456 164.954 59.9146 164.954 61.0036C164.954 61.9666 165.647 62.3896 166.52 62.3896ZM166.592 61.7956C165.935 61.7956 165.701 61.4896 165.701 61.0036C165.701 60.3106 166.394 60.0766 167.339 60.0766H167.987V60.6616C167.987 61.3906 167.384 61.7956 166.592 61.7956ZM170.345 62.3086H171.092V59.4556C171.092 58.6096 171.713 58.1686 172.406 58.1686C173.162 58.1686 173.513 58.5376 173.513 59.3656V62.3086H174.26V59.4196C174.26 58.0516 173.576 57.5206 172.604 57.5206C171.83 57.5206 171.308 57.9076 171.092 58.3486V57.6016H170.345V62.3086ZM177.641 62.3896C178.325 62.3896 178.982 61.9576 179.252 61.4986V62.3086H179.999V55.3516H179.252V58.3576C178.982 57.8986 178.496 57.5206 177.713 57.5206C176.417 57.5206 175.517 58.5376 175.517 59.9776V60.0496C175.517 61.5166 176.408 62.3896 177.641 62.3896ZM177.722 61.7686C176.93 61.7686 176.291 61.2016 176.291 60.0136V59.9416C176.291 58.7986 176.849 58.1416 177.785 58.1416C178.703 58.1416 179.279 58.7086 179.279 59.9146V59.9866C179.279 61.1926 178.595 61.7686 177.722 61.7686ZM18.682 74.3896C19.744 74.3896 20.527 73.8946 20.689 72.9496H19.942C19.843 73.4986 19.42 73.7686 18.691 73.7686C17.728 73.7686 17.215 73.1746 17.179 72.1036H20.725V71.8606C20.725 70.1776 19.699 69.5206 18.61 69.5206C17.314 69.5206 16.405 70.5106 16.405 71.9326V72.0046C16.405 73.4536 17.35 74.3896 18.682 74.3896ZM17.206 71.5006C17.332 70.6636 17.845 70.1416 18.61 70.1416C19.384 70.1416 19.888 70.5286 19.96 71.5006H17.206ZM23.2382 74.3896C23.9312 74.3896 24.3542 74.1556 24.7052 73.7146V74.3086H25.4522V71.2036C25.4522 69.8896 24.6332 69.5206 23.7332 69.5206C22.8242 69.5206 21.9692 69.9166 21.8702 70.9876H22.6172C22.6892 70.4116 23.0492 70.1416 23.6972 70.1416C24.4172 70.1416 24.7052 70.4566 24.7052 71.2036V71.5456H24.0302C22.8242 71.5456 21.6722 71.9146 21.6722 73.0036C21.6722 73.9666 22.3652 74.3896 23.2382 74.3896ZM23.3102 73.7956C22.6532 73.7956 22.4192 73.4896 22.4192 73.0036C22.4192 72.3106 23.1122 72.0766 24.0572 72.0766H24.7052V72.6616C24.7052 73.3906 24.1022 73.7956 23.3102 73.7956ZM27.0635 74.3086H27.8105V71.7256C27.8105 70.5646 28.4135 70.2676 29.3585 70.2226V69.5206C28.5125 69.5476 28.1075 69.9166 27.8105 70.4476V69.6016H27.0635V74.3086ZM30.5913 74.3086H31.3383V71.4556C31.3383 70.6096 31.9593 70.1686 32.6523 70.1686C33.4083 70.1686 33.7593 70.5376 33.7593 71.3656V74.3086H34.5063V71.4196C34.5063 70.0516 33.8223 69.5206 32.8503 69.5206C32.0763 69.5206 31.5543 69.9076 31.3383 70.3486V69.6016H30.5913V74.3086ZM38.6581 74.3086H39.4051V69.6016H38.6581V74.3086ZM39.0181 68.6206C39.2881 68.6206 39.5131 68.3956 39.5131 68.1256C39.5131 67.8556 39.2881 67.6306 39.0181 67.6306C38.7481 67.6306 38.5231 67.8556 38.5231 68.1256C38.5231 68.3956 38.7481 68.6206 39.0181 68.6206ZM41.078 74.3086H41.825V71.4286C41.825 70.5826 42.455 70.1686 43.067 70.1686C43.715 70.1686 44.066 70.5106 44.066 71.3386V74.3086H44.813V71.4286C44.813 70.5826 45.443 70.1686 46.055 70.1686C46.703 70.1686 47.054 70.5106 47.054 71.3386V74.3086H47.801V71.3926C47.801 70.0246 47.063 69.5206 46.217 69.5206C45.632 69.5206 44.93 69.7906 44.606 70.4026C44.363 69.7726 43.832 69.5206 43.229 69.5206C42.554 69.5206 42.041 69.8806 41.825 70.3216V69.6016H41.078V74.3086ZM49.4134 75.9466H50.1604V73.5346C50.4304 74.0026 50.9794 74.3896 51.7534 74.3896C53.0494 74.3896 53.8954 73.3996 53.8954 71.9596V71.8876C53.8954 70.4206 52.9864 69.5206 51.7534 69.5206C51.0694 69.5206 50.4304 69.9346 50.1604 70.3936V69.6016H49.4134V75.9466ZM51.6814 73.7686C50.7634 73.7686 50.1334 73.2016 50.1334 71.9956V71.9236C50.1334 70.7176 50.7994 70.1416 51.6724 70.1416C52.4644 70.1416 53.1214 70.7356 53.1214 71.9236V71.9956C53.1214 73.1386 52.6174 73.7686 51.6814 73.7686ZM55.2 74.3086H55.947V71.7256C55.947 70.5646 56.55 70.2676 57.495 70.2226V69.5206C56.649 69.5476 56.244 69.9166 55.947 70.4476V69.6016H55.2V74.3086ZM60.5219 74.3896C61.5839 74.3896 62.3669 73.8946 62.5289 72.9496H61.7819C61.6829 73.4986 61.2599 73.7686 60.5309 73.7686C59.5679 73.7686 59.0549 73.1746 59.0189 72.1036H62.5649V71.8606C62.5649 70.1776 61.5389 69.5206 60.4499 69.5206C59.1539 69.5206 58.2449 70.5106 58.2449 71.9326V72.0046C58.2449 73.4536 59.1899 74.3896 60.5219 74.3896ZM59.0459 71.5006C59.1719 70.6636 59.6849 70.1416 60.4499 70.1416C61.2239 70.1416 61.7279 70.5286 61.7999 71.5006H59.0459ZM65.3571 74.3896C66.5001 74.3896 67.0851 73.8136 67.0851 72.9586C67.0851 71.9596 66.4011 71.7436 65.4291 71.5636C64.5651 71.4106 64.3311 71.2396 64.3311 70.8166C64.3311 70.4116 64.6821 70.1416 65.2221 70.1416C65.8161 70.1416 66.1041 70.3666 66.2121 70.8796H66.9321C66.8061 69.8626 66.0771 69.5206 65.2311 69.5206C64.4931 69.5206 63.6381 69.9706 63.6381 70.8436C63.6381 71.6626 64.0521 72.0046 65.2761 72.2296C66.0051 72.3646 66.3741 72.5266 66.3741 73.0216C66.3741 73.5256 66.0591 73.7686 65.3481 73.7686C64.5921 73.7686 64.2951 73.4176 64.2411 72.8596H63.5121C63.5571 73.8226 64.2321 74.3896 65.3571 74.3896ZM69.8253 74.3896C70.9683 74.3896 71.5533 73.8136 71.5533 72.9586C71.5533 71.9596 70.8693 71.7436 69.8973 71.5636C69.0333 71.4106 68.7993 71.2396 68.7993 70.8166C68.7993 70.4116 69.1503 70.1416 69.6903 70.1416C70.2843 70.1416 70.5723 70.3666 70.6803 70.8796H71.4003C71.2743 69.8626 70.5453 69.5206 69.6993 69.5206C68.9613 69.5206 68.1063 69.9706 68.1063 70.8436C68.1063 71.6626 68.5203 72.0046 69.7443 72.2296C70.4733 72.3646 70.8423 72.5266 70.8423 73.0216C70.8423 73.5256 70.5273 73.7686 69.8163 73.7686C69.0603 73.7686 68.7633 73.4176 68.7093 72.8596H67.9803C68.0253 73.8226 68.7003 74.3896 69.8253 74.3896ZM72.8536 74.3086H73.6006V69.6016H72.8536V74.3086ZM73.2136 68.6206C73.4836 68.6206 73.7086 68.3956 73.7086 68.1256C73.7086 67.8556 73.4836 67.6306 73.2136 67.6306C72.9436 67.6306 72.7186 67.8556 72.7186 68.1256C72.7186 68.3956 72.9436 68.6206 73.2136 68.6206ZM76.4525 74.3086H77.4065L79.0985 69.6016H78.3245L76.9475 73.5526L75.5525 69.6016H74.7425L76.4525 74.3086ZM82.0193 74.3896C83.0813 74.3896 83.8643 73.8946 84.0263 72.9496H83.2793C83.1803 73.4986 82.7573 73.7686 82.0283 73.7686C81.0653 73.7686 80.5523 73.1746 80.5163 72.1036H84.0623V71.8606C84.0623 70.1776 83.0363 69.5206 81.9473 69.5206C80.6513 69.5206 79.7423 70.5106 79.7423 71.9326V72.0046C79.7423 73.4536 80.6873 74.3896 82.0193 74.3896ZM80.5433 71.5006C80.6693 70.6636 81.1823 70.1416 81.9473 70.1416C82.7213 70.1416 83.2253 70.5286 83.2973 71.5006H80.5433ZM87.8784 74.3086H88.6254V71.7256C88.6254 70.5646 89.2284 70.2676 90.1734 70.2226V69.5206C89.3274 69.5476 88.9224 69.9166 88.6254 70.4476V69.6016H87.8784V74.3086ZM93.2003 74.3896C94.2623 74.3896 95.0453 73.8946 95.2073 72.9496H94.4603C94.3613 73.4986 93.9383 73.7686 93.2093 73.7686C92.2463 73.7686 91.7333 73.1746 91.6973 72.1036H95.2433V71.8606C95.2433 70.1776 94.2173 69.5206 93.1283 69.5206C91.8323 69.5206 90.9233 70.5106 90.9233 71.9326V72.0046C90.9233 73.4536 91.8683 74.3896 93.2003 74.3896ZM91.7243 71.5006C91.8503 70.6636 92.3633 70.1416 93.1283 70.1416C93.9023 70.1416 94.4063 70.5286 94.4783 71.5006H91.7243ZM97.9645 74.3716C98.2705 74.3716 98.4505 74.3266 98.6035 74.2726V73.6426C98.4415 73.7056 98.2615 73.7416 98.0275 73.7416C97.6495 73.7416 97.4425 73.5166 97.4425 73.0576V70.2316H98.5405V69.6016H97.4425V68.5306H96.6955V69.6016H96.0205V70.2316H96.6955V73.1296C96.6955 73.8676 97.1095 74.3716 97.9645 74.3716ZM101.47 74.3896C102.226 74.3896 102.748 74.0026 102.964 73.5616V74.3086H103.711V69.6016H102.964V72.4546C102.964 73.3006 102.334 73.7416 101.668 73.7416C100.93 73.7416 100.579 73.3726 100.579 72.5446V69.6016H99.8318V72.5806C99.8318 73.8766 100.534 74.3896 101.47 74.3896ZM105.365 74.3086H106.112V71.7256C106.112 70.5646 106.715 70.2676 107.66 70.2226V69.5206C106.814 69.5476 106.409 69.9166 106.112 70.4476V69.6016H105.365V74.3086ZM108.892 74.3086H109.639V71.4556C109.639 70.6096 110.26 70.1686 110.953 70.1686C111.709 70.1686 112.06 70.5376 112.06 71.3656V74.3086H112.807V71.4196C112.807 70.0516 112.123 69.5206 111.151 69.5206C110.377 69.5206 109.855 69.9076 109.639 70.3486V69.6016H108.892V74.3086ZM115.873 74.3896C117.016 74.3896 117.601 73.8136 117.601 72.9586C117.601 71.9596 116.917 71.7436 115.945 71.5636C115.081 71.4106 114.847 71.2396 114.847 70.8166C114.847 70.4116 115.198 70.1416 115.738 70.1416C116.332 70.1416 116.62 70.3666 116.728 70.8796H117.448C117.322 69.8626 116.593 69.5206 115.747 69.5206C115.009 69.5206 114.154 69.9706 114.154 70.8436C114.154 71.6626 114.568 72.0046 115.792 72.2296C116.521 72.3646 116.89 72.5266 116.89 73.0216C116.89 73.5256 116.575 73.7686 115.864 73.7686C115.108 73.7686 114.811 73.4176 114.757 72.8596H114.028C114.073 73.8226 114.748 74.3896 115.873 74.3896ZM119.396 74.3536C119.711 74.3536 119.972 74.1016 119.972 73.7776C119.972 73.4536 119.711 73.2016 119.396 73.2016C119.081 73.2016 118.82 73.4536 118.82 73.7776C118.82 74.1016 119.081 74.3536 119.396 74.3536Z" fill="#1C1C1C"/>
<line opacity="0.52" x1="16.1844" y1="50.9816" x2="183.627" y2="50.9816" stroke="#214D52" stroke-width="0.368817" stroke-linecap="round"/>
<path d="M28.0263 37.267C24.0999 36.8749 21.0194 33.4323 21.0194 29.2566C21.0194 27.368 21.6423 25.5788 22.7869 24.1413L19.2281 20.4482C17.1414 22.8775 16 25.9758 16 29.2566C16 32.7977 17.3288 36.1268 19.7416 38.6306C21.9772 40.9505 24.8955 42.3039 28.0263 42.4904V37.267Z" fill="#42747A"/>
<path d="M23.8453 23.043C25.2306 21.8552 26.9548 21.2089 28.7747 21.2089C32.7985 21.2089 36.116 24.4055 36.4938 28.4801H41.5272C41.3475 25.2312 40.0433 22.2027 37.8078 19.8829C35.395 17.3789 32.187 16 28.7747 16C25.6132 16 22.6275 17.1845 20.2866 19.3499L23.8453 23.043Z" fill="#C0D271"/>
<path fill-rule="evenodd" clip-rule="evenodd" d="M30.7273 33.2642C30.7273 31.6073 32.0704 30.2642 33.7273 30.2642H40C41.6569 30.2642 43 31.6073 43 33.2642V40C43 41.6569 41.6569 43 40 43H33.7273C32.0704 43 30.7273 41.6569 30.7273 40V33.2642ZM40.9546 32.3869C40.9007 32.3315 40.8211 32.2997 40.7527 32.302C39.1799 32.3326 37.345 33.2853 36.18 34.6693C34.9193 34.716 33.8678 35.1104 33.2118 35.7911C33.1406 35.865 33.1134 35.973 33.1406 36.0734C33.1679 36.1739 33.2452 36.2513 33.3437 36.2761L34.5282 36.5705L34.5209 36.5786C34.4219 36.6924 34.4264 36.8673 34.5309 36.9759L36.5322 39.0527C36.5861 39.1093 36.6573 39.137 36.7291 39.137C36.7959 39.137 36.8621 39.1127 36.9149 39.0631L36.9227 39.0556L37.2065 40.2848C37.2298 40.3864 37.3044 40.4672 37.4018 40.4955C37.4268 40.503 37.4518 40.5065 37.4774 40.5065C37.5503 40.5065 37.621 40.477 37.6744 40.4222C38.3309 39.7409 38.7103 38.6497 38.7554 37.3413C40.0906 36.1283 41.0069 34.2264 41.0364 32.5959C41.037 32.518 41.0081 32.4423 40.9546 32.3869ZM32.7028 40.5862C32.7958 40.2633 33.2798 38.6335 33.6579 38.241C34.1132 37.7673 34.8559 37.7668 35.3134 38.2405C35.7699 38.7147 35.7699 39.4849 35.3134 39.9586C34.9348 40.3516 33.3649 40.8534 33.0538 40.9499C33.0268 40.9581 32.9997 40.9622 32.9727 40.9622C32.8989 40.9622 32.8273 40.9324 32.7732 40.8768C32.7005 40.8008 32.6729 40.6891 32.7028 40.5862Z" fill="#54AB68"/>
<g opacity="0.92" clip-path="url(#clip1)">
<path d="M172.058 3.77034C171.432 4.92618 170.072 6.57801 168.538 8.15927C166.95 9.7953 165.188 11.3401 163.862 12.1727L172.058 3.77034ZM159.679 9.00351C161.382 10.2631 162.959 11.4296 163.859 12.0566L171.934 3.7888C171.328 3.20667 169.933 2.13393 168.302 0.930896C166.624 -0.307191 164.704 -1.67751 163.157 -2.78098C161.988 -3.61483 161.025 -4.30217 160.566 -4.64563L160.626 -4.72571L160.566 -4.64563C157.928 -6.61903 155.022 -7.43259 152.246 -7.31974L152.246 -7.31974C150.313 -7.24139 148.435 -6.71159 146.751 -5.81151C145.068 -4.91134 143.578 -3.64044 142.421 -2.07822L142.341 -2.13773L142.421 -2.07821C140.772 0.148503 139.787 2.97052 139.86 6.16165L139.86 6.1617C139.876 6.84401 139.875 8.10056 139.874 9.61111L139.874 9.61484C139.872 11.5737 139.871 13.9675 139.902 16.076C139.932 18.1257 139.994 19.8967 140.115 20.7393C141.431 20.8677 143.483 20.6853 145.578 20.3144L145.578 20.3144C147.748 19.9307 149.934 19.3491 151.368 18.7118C151.405 17.0887 151.37 15.4509 151.335 13.8159L151.335 13.8157L151.298 11.8613L151.298 11.8608L151.272 10.7907C151.272 10.7906 151.272 10.7906 151.272 10.7905C151.243 9.77383 151.203 8.34974 151.204 7.06991C151.204 6.43001 151.215 5.82498 151.243 5.32433C151.27 4.82726 151.314 4.42255 151.385 4.18994L151.385 4.18989L151.562 3.61398L151.593 3.51122L151.693 3.55004L152.246 3.76425L152.247 3.76429C152.439 3.83899 152.804 4.06149 153.282 4.37985C153.764 4.70086 154.372 5.12623 155.053 5.61451C156.401 6.58049 158.044 7.79476 159.591 8.93885L159.642 8.97668L159.643 8.97669L159.679 9.00351Z" stroke="#41747A" stroke-width="0.2"/>
</g>
<g clip-path="url(#clip2)">
<path opacity="0.92" d="M10.4184 84.9782C11.7727 85.1808 13.0272 85.3686 13.7362 85.4945C13.952 86.4809 14.048 87.9681 14.0261 89.4241L14.1261 89.4256L14.0261 89.4241C14.0053 90.8192 13.8774 92.1597 13.6501 92.9776C13.0948 92.9627 11.973 92.8158 10.684 92.6212C9.33727 92.4178 7.81775 92.1639 6.59382 91.9594C5.66908 91.8047 4.90627 91.6772 4.53502 91.6237L4.52074 91.7226L4.53501 91.6237C2.41276 91.3176 0.702448 90.3554 -0.522155 89.027L-0.522164 89.027C-1.37531 88.1017 -1.99531 86.9944 -2.35622 85.8055C-2.71625 84.6173 -2.81689 83.3474 -2.63051 82.0966L-2.63051 82.0966C-2.365 80.3138 -1.51982 78.5628 -0.0178657 77.128L-0.0178268 77.128C0.304721 76.8195 0.885168 76.2385 1.58217 75.5405L1.58371 75.5389C2.48791 74.6335 3.59263 73.5272 4.58076 72.5679C5.52673 71.6496 6.3596 70.8722 6.80804 70.5319C7.46839 71.0816 8.31995 72.1006 9.1073 73.2268L9.10732 73.2269C9.92591 74.397 10.6604 75.6628 11.0296 76.6135C10.3022 77.3739 9.53561 78.1087 8.76954 78.8426L8.76938 78.8428L7.84946 79.728L7.84908 79.7284L7.34295 80.2103C7.3429 80.2103 7.34285 80.2104 7.34279 80.2104C6.86006 80.6667 6.18357 81.3063 5.59249 81.8983C5.29695 82.1942 5.02193 82.4791 4.80277 82.7237C4.58601 82.9656 4.41672 83.1758 4.33991 83.3204L4.33989 83.3204L4.15544 83.668L4.10505 83.7629L4.20337 83.8063L4.55774 83.9628L4.55784 83.9629C4.68529 84.019 4.96074 84.0855 5.32759 84.1591C5.69916 84.2337 6.17652 84.3177 6.71698 84.407C7.78614 84.5837 9.10571 84.7814 10.3487 84.9677L10.3901 84.9739L10.3901 84.9739L10.4184 84.9782Z" stroke="white" stroke-width="0.2"/>
</g>
<g opacity="0.92" clip-path="url(#clip3)">
<path fill-rule="evenodd" clip-rule="evenodd" d="M176.414 79.2169C176.964 79.9481 177.94 81.3335 178.993 82.8266C180.871 85.4884 182.991 88.4938 183.49 88.9063L183.874 89.2224L184.166 88.8107C184.611 88.1831 185.493 85.246 185.983 83.6126L186.245 82.7535L186.73 81.1881C187.138 79.8612 187.547 78.53 188.012 77.2304C189.333 77.0916 191.26 77.2051 193.115 77.4756C194.916 77.7376 196.638 78.1449 197.655 78.6096C197.432 79.9792 195.936 84.4868 194.902 87.6044C194.503 88.8066 194.172 89.8051 194.004 90.3508C193.216 92.9274 191.678 94.929 189.764 96.2768C188.422 97.2224 186.89 97.8459 185.302 98.1209C183.712 98.3954 182.066 98.3218 180.494 97.8712C178.237 97.2244 176.123 95.8001 174.533 93.519C174.258 93.1257 173.674 92.3261 172.963 91.3542C171.084 88.7836 168.294 84.9671 167.674 83.7469C168.477 82.9923 169.994 82.0359 171.632 81.182C173.328 80.2976 175.139 79.5319 176.413 79.2193L176.414 79.2169Z" fill="#99CC99"/>
</g>
<g opacity="0.62" clip-path="url(#clip4)">
<path opacity="0.92" d="M332.167 15.162C331.604 17.1307 331.082 18.9543 330.814 19.9973C332.023 20.9022 333.987 21.9544 335.982 22.8268L335.982 22.8268C337.894 23.6629 339.798 24.3194 341.052 24.5169C341.375 23.7517 341.871 22.1341 342.404 20.2593C342.962 18.3002 343.558 16.0747 344.038 14.282C344.401 12.9275 344.7 11.8103 344.857 11.2717L344.857 11.2717C345.756 8.19358 345.506 5.26951 344.456 2.77964L344.456 2.77962C343.726 1.04512 342.603 -0.484887 341.208 -1.71288C339.814 -2.93913 338.148 -3.86297 336.33 -4.38436L336.33 -4.38436C333.739 -5.1277 330.832 -5.06239 327.949 -3.90719L327.949 -3.90716C327.329 -3.65928 326.179 -3.22928 324.797 -2.71314L324.793 -2.71192C323.001 -2.04233 320.81 -1.22426 318.892 -0.473779C317.057 0.244619 315.483 0.896416 314.742 1.29594C315.08 2.53526 315.94 4.32558 316.985 6.09496L316.985 6.095C318.07 7.93417 319.338 9.71807 320.403 10.8097C321.888 10.2908 323.363 9.70287 324.837 9.115L324.837 9.11488L326.612 8.41132L326.613 8.41102L327.582 8.02075C327.583 8.0207 327.583 8.02064 327.583 8.02058C328.503 7.64629 329.793 7.12192 330.965 6.68422C331.551 6.46536 332.109 6.26755 332.578 6.12081C333.041 5.97568 333.432 5.87554 333.677 5.86055L333.677 5.86054L334.264 5.82485L334.425 5.81507L334.423 5.97628L334.417 6.55559L334.417 6.55575C334.414 6.76406 334.334 7.18024 334.207 7.72516C334.078 8.27713 333.897 8.97895 333.683 9.7699C333.261 11.3346 332.713 13.2532 332.196 15.0605L332.179 15.1207L332.179 15.1207L332.167 15.162Z" stroke="white" stroke-width="0.3"/>
</g>
<g opacity="0.92" clip-path="url(#clip5)">
<path fill-rule="evenodd" clip-rule="evenodd" d="M327.184 82.0695C328.09 82.1333 329.764 82.303 331.568 82.4858C334.786 82.8108 338.418 83.1787 339.052 83.0729L339.539 82.9912L339.42 82.5042C339.24 81.7622 337.613 79.1891 336.708 77.7584L336.234 77.0034L335.376 75.6208C334.647 74.4514 333.916 73.2777 333.245 72.0832C334.001 71.0031 335.34 69.633 336.75 68.4184C338.119 67.239 339.545 66.2138 340.555 65.7539C341.437 66.8124 343.842 70.8677 345.505 73.6725C346.146 74.7541 346.679 75.6522 346.979 76.1328C348.397 78.4007 348.896 80.8564 348.66 83.1683C348.495 84.7901 347.965 86.344 347.138 87.7134C346.309 89.0835 345.182 90.2696 343.821 91.1543C341.867 92.425 339.424 93.0819 336.679 92.7892C336.205 92.7388 335.226 92.6564 334.034 92.5564C330.884 92.2916 326.208 91.8984 324.89 91.5687C324.847 90.4755 325.118 88.7162 325.544 86.9329C325.985 85.086 326.59 83.2303 327.185 82.0715L327.184 82.0695Z" fill="#C0D271"/>
</g>
<path opacity="0.92" fill-rule="evenodd" clip-rule="evenodd" d="M6.47006 70.7655C6.21544 70.6905 5.74808 70.5377 5.24434 70.3732C4.3461 70.0799 3.33216 69.7487 3.14472 69.7373L3.00085 69.7288L3.00485 69.8694C3.01107 70.0837 3.31797 70.8905 3.48877 71.3391L3.57781 71.5756L3.73797 72.008C3.87445 72.374 4.01128 72.7413 4.1298 73.1105C3.84813 73.3577 3.38221 73.6472 2.90542 73.8897C2.44271 74.1252 1.97315 74.3148 1.65666 74.3764C1.46986 74.031 1.03168 72.7697 0.728605 71.8973C0.611741 71.5609 0.514622 71.2815 0.458357 71.1311C0.192371 70.421 0.200175 69.718 0.408819 69.101C0.555145 68.6681 0.801351 68.2769 1.12127 67.9552C1.44162 67.6333 1.83571 67.3806 2.27813 67.2252C2.91344 67.0019 3.65079 66.9775 4.41621 67.2319C4.54818 67.2758 4.82272 67.3605 5.15651 67.4635C6.03918 67.736 7.34961 68.1405 7.70552 68.3144C7.65087 68.6159 7.46611 69.0797 7.23545 69.5401C6.99666 70.017 6.71052 70.4859 6.46979 70.7648L6.47006 70.7655Z" fill="#7CB8A6"/>
<path d="M234.306 60.7002H234.006V61.0002H234.306V60.7002ZM259.401 60.7002V61.0002H259.701V60.7002H259.401ZM259.401 54.0228H259.701V53.7228H259.401V54.0228ZM248.927 54.0228L248.718 53.8075L248.187 54.3228H248.927V54.0228ZM253.291 49.7895L253.083 49.5733L253.082 49.5741L253.291 49.7895ZM234.917 40.8427L234.618 40.831L234.606 41.1427H234.917V40.8427ZM243.035 40.8427V41.1427H243.305L243.333 40.8743L243.035 40.8427ZM245.217 47.8692L245.435 48.0751L245.436 48.074L245.217 47.8692ZM234.306 59.4346L234.088 59.2287L234.006 59.3154V59.4346H234.306ZM234.306 61.0002H259.401V60.4002H234.306V61.0002ZM259.701 60.7002V54.0228H259.101V60.7002H259.701ZM259.401 53.7228H248.927V54.3228H259.401V53.7228ZM249.136 54.2382L253.5 50.0048L253.082 49.5741L248.718 53.8075L249.136 54.2382ZM253.499 50.0056C257.003 46.6334 259.483 43.3285 259.483 38.9224H258.883C258.883 43.0703 256.562 46.2245 253.083 49.5733L253.499 50.0056ZM259.483 38.9224C259.483 35.9681 258.44 33.4161 256.398 31.6059C254.359 29.799 251.357 28.7591 247.487 28.7591V29.3591C251.254 29.3591 254.1 30.3704 256 32.0549C257.897 33.7362 258.883 36.1158 258.883 38.9224H259.483ZM247.487 28.7591C243.661 28.7591 240.514 29.7657 238.283 31.7997C236.049 33.836 234.773 36.8659 234.618 40.831L235.217 40.8544C235.368 37.0074 236.6 34.1456 238.687 32.2431C240.777 30.3383 243.762 29.3591 247.487 29.3591V28.7591ZM234.917 41.1427H243.035V40.5427H234.917V41.1427ZM243.333 40.8743C243.527 39.0442 243.964 37.8489 244.585 37.1137C245.192 36.3939 246.005 36.0801 247.05 36.0801V35.4801C245.87 35.4801 244.872 35.8428 244.126 36.7269C243.393 37.5956 242.936 38.9315 242.737 40.8111L243.333 40.8743ZM247.05 36.0801C248.098 36.0801 248.838 36.4066 249.321 36.9412C249.807 37.4807 250.067 38.273 250.067 39.2715H250.667C250.667 38.1753 250.382 37.2218 249.766 36.5394C249.146 35.8519 248.228 35.4801 247.05 35.4801V36.0801ZM250.067 39.2715C250.067 40.5009 249.586 41.7642 248.701 43.1469C247.817 44.53 246.545 46.0081 244.998 47.6644L245.436 48.074C246.988 46.4134 248.291 44.902 249.207 43.4701C250.123 42.0379 250.667 40.6607 250.667 39.2715H250.067ZM244.999 47.6633L234.088 59.2287L234.525 59.6404L245.435 48.0751L244.999 47.6633ZM234.006 59.4346V60.7002H234.606V59.4346H234.006ZM267.927 60.7002H267.627V61.0002H267.927V60.7002ZM276.874 60.7002V61.0002H277.174V60.7002H276.874ZM276.874 29.4955H277.174V29.1955H276.874V29.4955ZM269.149 29.4955V29.1955H269.054L268.977 29.2499L269.149 29.4955ZM261.991 34.5145L261.819 34.2688L261.691 34.3584V34.5145H261.991ZM261.991 41.9774H261.691V42.5153L262.149 42.2326L261.991 41.9774ZM267.927 38.3114H268.227V37.7735L267.769 38.0562L267.927 38.3114ZM267.927 61.0002H276.874V60.4002H267.927V61.0002ZM277.174 60.7002V29.4955H276.574V60.7002H277.174ZM276.874 29.1955H269.149V29.7955H276.874V29.1955ZM268.977 29.2499L261.819 34.2688L262.164 34.7601L269.321 29.7412L268.977 29.2499ZM261.691 34.5145V41.9774H262.291V34.5145H261.691ZM262.149 42.2326L268.084 38.5666L267.769 38.0562L261.834 41.7222L262.149 42.2326ZM267.627 38.3114V60.7002H268.227V38.3114H267.627Z" fill="white"/>
<path d="M233.706 60.0181H258.801V53.3407H248.327L252.691 49.1074C256.183 45.7469 258.583 42.5173 258.583 38.2403C258.583 32.4794 254.524 28.377 246.887 28.377C239.336 28.377 234.623 32.3485 234.317 40.1606H242.435C242.828 36.4509 244.224 35.098 246.45 35.098C248.676 35.098 249.767 36.4946 249.767 38.5894C249.767 41.208 247.716 43.8702 244.617 47.1871L233.706 58.7524V60.0181ZM267.327 60.0181H276.274V28.8134H268.549L261.391 33.8323V41.2953L267.327 37.6293V60.0181Z" fill="#C0D271"/>
</g>
<defs>
<linearGradient id="paint0_linear" x1="236.018" y1="-54.4692" x2="350.84" y2="116.995" gradientUnits="userSpaceOnUse">
<stop stop-color="#2D9565"/>
<stop offset="1" stop-color="#36667C"/>
</linearGradient>
<linearGradient id="paint1_linear" x1="51.9929" y1="26.5" x2="60.8246" y2="58.1373" gradientUnits="userSpaceOnUse">
<stop offset="0.211719" stop-color="#30AB68"/>
<stop offset="1" stop-color="#3D648C"/>
</linearGradient>
<clipPath id="clip0">
<rect width="343" height="90" rx="5" fill="white"/>
</clipPath>
<clipPath id="clip1">
<rect width="34.1569" height="32.4491" fill="white" transform="translate(174.986 2.46094) rotate(120)"/>
</clipPath>
<clipPath id="clip2">
<rect width="22.3108" height="21.1953" fill="white" transform="matrix(0.258819 -0.965926 -0.965926 -0.258819 14.4726 95.0361)"/>
</clipPath>
<clipPath id="clip3">
<rect width="28.63" height="27.1985" fill="white" transform="translate(165 84.0186) rotate(-41.6816)"/>
</clipPath>
<clipPath id="clip4">
<rect width="36.108" height="34.3026" fill="white" transform="translate(344.384 31.6133) rotate(-170.521)"/>
</clipPath>
<clipPath id="clip5">
<rect width="28.4211" height="27" fill="white" transform="translate(323.352 93.7495) rotate(-90.7073)"/>
</clipPath>
</defs>
</svg>
