<svg width="343" height="90" viewBox="0 0 343 90" fill="none" xmlns="http://www.w3.org/2000/svg">
<g clip-path="url(#clip0)">
<rect width="343" height="90" rx="5" fill="url(#paint0_linear)"/>
<path d="M30.632 54H33.896L30.056 46.992C32.432 46.416 33.896 44.568 33.896 42.144C33.896 39.264 31.856 36.984 28.568 36.984H22.04V54H24.944V47.28H27.056L30.632 54ZM24.944 44.736V39.528H28.04C29.816 39.528 30.968 40.56 30.968 42.144C30.968 43.704 29.816 44.736 28.04 44.736H24.944ZM37.5552 46.872C37.6513 45.624 38.6592 44.28 40.4112 44.28C42.3313 44.28 43.2432 45.504 43.2912 46.872H37.5552ZM43.6033 49.92C43.2193 51.072 42.3552 51.96 40.6753 51.96C38.9473 51.96 37.5552 50.688 37.4833 48.912H46.0272C46.0513 48.864 46.0993 48.48 46.0993 48.024C46.0993 44.328 43.9873 41.952 40.3873 41.952C37.4352 41.952 34.6992 44.4 34.6992 48.096C34.6992 52.056 37.5073 54.36 40.6753 54.36C43.4833 54.36 45.3313 52.704 45.9553 50.664L43.6033 49.92ZM53.2237 39C53.7517 39 54.0637 39.072 54.2317 39.12V36.744C54.0397 36.648 53.4637 36.504 52.7677 36.504C50.3677 36.504 48.6877 38.088 48.6877 40.704V42.312H46.6477V44.736H48.6877V54H51.4957V44.736H54.2077V42.312H51.4957V40.776C51.4957 39.336 52.4797 39 53.2237 39ZM57.3028 46.872C57.3988 45.624 58.4068 44.28 60.1588 44.28C62.0788 44.28 62.9908 45.504 63.0388 46.872H57.3028ZM63.3508 49.92C62.9668 51.072 62.1028 51.96 60.4228 51.96C58.6948 51.96 57.3028 50.688 57.2308 48.912H65.7748C65.7988 48.864 65.8468 48.48 65.8468 48.024C65.8468 44.328 63.7348 41.952 60.1348 41.952C57.1828 41.952 54.4468 44.4 54.4468 48.096C54.4468 52.056 57.2548 54.36 60.4228 54.36C63.2308 54.36 65.0788 52.704 65.7028 50.664L63.3508 49.92ZM74.6272 42.24C74.5072 42.216 74.2192 42.168 73.8832 42.168C72.3472 42.168 71.0512 42.912 70.4992 44.184V42.312H67.7872V54H70.5712V48.432C70.5712 46.248 71.5552 45 73.7152 45C74.0032 45 74.3152 45.024 74.6272 45.072V42.24ZM91.9286 54H95.6486L91.8086 49.992L94.1366 47.424V43.824L90.0806 48.192L87.2486 45.24L87.9926 44.688C89.1926 43.776 90.3926 42.528 90.3926 40.848C90.3926 38.304 88.4006 36.624 85.7366 36.624C83.5286 36.624 81.1766 38.16 81.1766 40.968C81.1766 42.552 82.3046 43.872 83.1206 44.712L83.4086 45.024L83.2406 45.144C81.4646 46.464 80.2886 47.664 80.2886 49.848C80.2886 52.08 82.0646 54.312 85.3526 54.312C87.2006 54.312 88.6886 53.4 90.0086 51.984L91.9286 54ZM85.4006 51.792C84.0086 51.792 83.1446 50.712 83.1446 49.656C83.1446 48.552 83.7206 47.856 84.5366 47.256L85.1126 46.824L88.2566 50.16L88.2326 50.184C87.3686 51.12 86.5286 51.792 85.4006 51.792ZM83.9126 40.8C83.9126 39.576 84.8726 38.976 85.7606 38.976C86.8646 38.976 87.6566 39.792 87.6566 40.8C87.6566 41.448 87.3926 42.072 86.5046 42.744L85.5206 43.464L85.0406 42.936C84.4406 42.288 83.9126 41.616 83.9126 40.8ZM111.753 54V51.312H104.121V46.8H111.033V44.184H104.121V39.672H111.753V36.984H101.241V54H111.753ZM113.295 50.832C113.295 52.68 114.807 54.36 117.255 54.36C119.151 54.36 120.303 53.4 120.855 52.512C120.855 53.448 120.951 53.928 120.975 54H123.567C123.543 53.88 123.423 53.184 123.423 52.128V46.32C123.423 43.992 122.055 41.952 118.455 41.952C115.575 41.952 113.751 43.752 113.535 45.768L116.079 46.344C116.199 45.168 117.015 44.232 118.479 44.232C120.015 44.232 120.687 45.024 120.687 46.008C120.687 46.416 120.495 46.752 119.823 46.848L116.823 47.304C114.831 47.592 113.295 48.744 113.295 50.832ZM117.783 52.176C116.679 52.176 116.079 51.456 116.079 50.664C116.079 49.704 116.775 49.224 117.639 49.08L120.687 48.624V49.152C120.687 51.432 119.343 52.176 117.783 52.176ZM132.909 42.24C132.789 42.216 132.501 42.168 132.165 42.168C130.629 42.168 129.333 42.912 128.781 44.184V42.312H126.069V54H128.853V48.432C128.853 46.248 129.837 45 131.997 45C132.285 45 132.597 45.024 132.909 45.072V42.24ZM137.297 47.256C137.297 45.72 138.137 44.496 139.721 44.496C141.473 44.496 142.121 45.648 142.121 47.088V54H144.905V46.608C144.905 44.04 143.537 41.976 140.681 41.976C139.385 41.976 137.993 42.528 137.225 43.872V42.312H134.513V54H137.297V47.256Z" fill="white"/>
<path d="M172.225 49.704C172.417 52.152 174.721 54.384 178.081 54.384C181.681 54.384 183.937 51.936 183.937 49.008C183.937 45.744 181.705 43.824 178.609 43.824C177.505 43.824 176.305 44.208 175.633 44.904L176.593 40.968H183.169V38.448H174.649L172.729 46.296L175.441 47.28C175.993 46.656 176.929 46.2 178.033 46.2C179.617 46.2 181.033 47.16 181.033 49.08C181.033 50.808 179.713 51.912 178.081 51.912C176.281 51.912 175.057 50.664 174.937 49.008L172.225 49.704ZM187.845 46.224C187.845 44.256 188.181 42.744 188.949 41.784C189.477 41.088 190.221 40.632 191.349 40.632C192.477 40.632 193.197 41.088 193.749 41.784C194.493 42.744 194.829 44.256 194.829 46.224C194.829 48.192 194.493 49.704 193.749 50.664C193.197 51.36 192.477 51.816 191.349 51.816C190.221 51.816 189.477 51.36 188.949 50.664C188.205 49.704 187.845 48.192 187.845 46.224ZM184.989 46.224C184.989 48.288 185.325 50.232 186.381 51.816C187.389 53.328 189.021 54.36 191.349 54.36C193.677 54.36 195.285 53.328 196.293 51.816C197.349 50.232 197.685 48.288 197.685 46.224C197.685 44.16 197.349 42.216 196.293 40.632C195.285 39.12 193.677 38.088 191.349 38.088C189.021 38.088 187.389 39.12 186.381 40.632C185.325 42.216 184.989 44.16 184.989 46.224ZM201.914 46.224C201.914 44.256 202.25 42.744 203.018 41.784C203.546 41.088 204.29 40.632 205.418 40.632C206.546 40.632 207.266 41.088 207.818 41.784C208.562 42.744 208.898 44.256 208.898 46.224C208.898 48.192 208.562 49.704 207.818 50.664C207.266 51.36 206.546 51.816 205.418 51.816C204.29 51.816 203.546 51.36 203.018 50.664C202.274 49.704 201.914 48.192 201.914 46.224ZM199.058 46.224C199.058 48.288 199.394 50.232 200.45 51.816C201.458 53.328 203.09 54.36 205.418 54.36C207.746 54.36 209.354 53.328 210.362 51.816C211.418 50.232 211.754 48.288 211.754 46.224C211.754 44.16 211.418 42.216 210.362 40.632C209.354 39.12 207.746 38.088 205.418 38.088C203.09 38.088 201.458 39.12 200.45 40.632C199.394 42.216 199.058 44.16 199.058 46.224Z" fill="white"/>
<path d="M165.044 54L158.296 42.6488V54H155.404V38H159.009L165.19 48.5839V38H168.082V54H165.044Z" fill="white"/>
<path d="M153 44.8515V42.4678H170.463V44.8515H153ZM153 49.2849V46.8788H170.463V49.2849H153Z" fill="white"/>
<g opacity="0.92" clip-path="url(#clip1)">
<path d="M129.689 12.9714L129.591 12.9531C130.289 9.18669 129.642 5.73892 128.095 2.90264L128.095 2.90263C127.018 0.927077 125.499 -0.757809 123.693 -2.05077C121.888 -3.34175 119.796 -4.24055 117.572 -4.64255L117.59 -4.74096L117.572 -4.64255C114.401 -5.21581 110.952 -4.78918 107.663 -3.07025L107.663 -3.07022C106.96 -2.70355 105.652 -2.05808 104.078 -1.28232L104.074 -1.28034C102.033 -0.274348 99.5391 0.955021 97.3592 2.072C95.2315 3.16222 93.4112 4.14127 92.6002 4.70085C93.1417 6.14001 94.3907 8.1903 95.8586 10.1869L95.8586 10.1869C97.3775 12.2542 99.1119 14.2362 100.516 15.4023C102.229 14.6048 103.92 13.7247 105.608 12.8458L105.608 12.8457L107.624 11.8013L107.625 11.8011L108.726 11.2234C108.726 11.2233 108.726 11.2233 108.726 11.2233C109.77 10.6706 111.233 9.89677 112.566 9.23963C113.232 8.91107 113.868 8.61114 114.403 8.38241C114.935 8.15509 115.377 7.99379 115.654 7.94865L115.654 7.94864L116.344 7.83632L116.45 7.81907L116.46 7.92612L116.521 8.61225L116.521 8.61236C116.542 8.84889 116.499 9.34167 116.413 10.0039C116.327 10.671 116.196 11.5219 116.038 12.4827C115.725 14.3837 115.305 16.7186 114.91 18.9187L114.897 18.9913L114.897 18.9913L114.887 19.0434C114.45 21.4712 114.045 23.7195 113.856 24.9772C115.399 25.9155 117.879 26.94 120.369 27.7424L120.339 27.8376L120.369 27.7424C122.764 28.5142 125.133 29.0709 126.649 29.1438C126.944 28.2177 127.346 26.2046 127.762 23.8779C128.188 21.493 128.627 18.7883 128.981 16.6104C129.249 14.9641 129.469 13.6079 129.591 12.9531L129.689 12.9714Z" stroke="#B1CC73" stroke-width="0.2"/>
</g>
<g clip-path="url(#clip2)">
<path opacity="0.92" d="M11.1456 76.6378C10.7801 75.6697 10.027 74.3679 9.18932 73.1705C8.37665 72.0081 7.49066 70.9519 6.81108 70.4062M11.1456 76.6378L11.0733 76.5688C11.0587 76.584 11.0442 76.5992 11.0296 76.6145M11.1456 76.6378L11.0521 76.6731C11.0448 76.6537 11.0373 76.6341 11.0296 76.6145M11.1456 76.6378C10.4035 77.4163 9.61992 78.1675 8.83878 78.9158L1.51147 75.4708M11.0296 76.6145C10.6604 75.6638 9.92597 74.398 9.10738 73.2278L9.10736 73.2278C8.32001 72.1016 7.46846 71.0826 6.8081 70.5329M11.0296 76.6145C10.3022 77.3748 9.53567 78.1097 8.7696 78.8436L8.76944 78.8438L7.84952 79.729L7.84914 79.7293L7.34301 80.2112C7.34296 80.2113 7.34291 80.2113 7.34285 80.2114C6.86012 80.6677 6.18363 81.3073 5.59255 81.8993C5.29702 82.1952 5.02199 82.4801 4.80283 82.7247C4.58607 82.9666 4.41678 83.1768 4.33997 83.3214L4.33995 83.3214L4.1555 83.6689L4.10511 83.7639L4.20343 83.8073L4.5578 83.9638L4.5579 83.9638C4.68535 84.02 4.9608 84.0865 5.32765 84.1601C5.69922 84.2347 6.17658 84.3187 6.71704 84.408C7.78625 84.5847 9.10589 84.7824 10.3489 84.9687L10.3902 84.9749L10.3902 84.9749L10.4184 84.9791C11.7728 85.1818 13.0273 85.3695 13.7362 85.4955C13.952 86.4819 14.0481 87.9691 14.0262 89.425L14.1262 89.4265L14.0262 89.4251C14.0054 90.8202 13.8774 92.1607 13.6502 92.9786C13.0948 92.9637 11.973 92.8168 10.6841 92.6222C9.33733 92.4188 7.81782 92.1649 6.59389 91.9603M6.8081 70.5329C6.82954 70.5167 6.85009 70.5014 6.86974 70.4872L6.81108 70.4062M6.8081 70.5329C6.78804 70.5162 6.76816 70.5 6.74846 70.4841L6.81108 70.4062M6.8081 70.5329C6.35966 70.8732 5.5268 71.6506 4.58082 72.5689C3.59275 73.5281 2.48809 74.6343 1.58392 75.5398L1.58223 75.5415C0.885229 76.2395 0.304782 76.8205 -0.0177658 77.129L-0.0178047 77.129C-1.51976 78.5637 -2.36494 80.3148 -2.63045 82.0976L-2.63045 82.0976C-2.81683 83.3484 -2.71619 84.6182 -2.35616 85.8064C-1.99525 86.9954 -1.37525 88.1027 -0.522103 89.0279L-0.522094 89.0279C0.702509 90.3563 2.41282 91.3186 4.53507 91.6246L4.5208 91.7236L4.53508 91.6246C4.90633 91.6782 5.66915 91.8057 6.59389 91.9603M6.81108 70.4062C5.9357 71.0403 3.32206 73.6577 1.51339 75.4689L1.51147 75.4708M1.51147 75.4708C0.813984 76.1693 0.234607 76.7493 -0.0868789 77.0567C-1.60519 78.507 -2.46063 80.2784 -2.72936 82.0828L1.51147 75.4708ZM6.59389 91.9603L6.57739 92.059L6.59389 91.9603Z" stroke="white" stroke-width="0.2"/>
</g>
<g opacity="0.92" clip-path="url(#clip3)">
<path fill-rule="evenodd" clip-rule="evenodd" d="M176.414 79.2178C176.964 79.9491 177.94 81.3345 178.993 82.8276C180.871 85.4894 182.991 88.4948 183.49 88.9072L183.874 89.2234L184.166 88.8116C184.611 88.184 185.493 85.247 185.983 83.6136L186.245 82.7545L186.73 81.189C187.138 79.8622 187.547 78.531 188.013 77.2314C189.333 77.0926 191.26 77.2061 193.115 77.4766C194.916 77.7386 196.638 78.1458 197.655 78.6106C197.432 79.9802 195.936 84.4878 194.902 87.6054C194.503 88.8076 194.172 89.8061 194.005 90.3518C193.216 92.9284 191.678 94.93 189.764 96.2778C188.422 97.2234 186.89 97.8469 185.302 98.1219C183.712 98.3964 182.066 98.3228 180.494 97.8722C178.237 97.2254 176.123 95.8011 174.533 93.52C174.258 93.1267 173.674 92.3271 172.963 91.3552C171.084 88.7846 168.294 84.968 167.674 83.7479C168.477 82.9932 169.994 82.0369 171.632 81.183C173.328 80.2985 175.139 79.5329 176.413 79.2203L176.414 79.2178Z" fill="#99CC99"/>
</g>
<g opacity="0.92" clip-path="url(#clip4)">
<path opacity="0.92" fill-rule="evenodd" clip-rule="evenodd" d="M333.248 16.9203C333.541 16.0691 334.131 14.5094 334.767 12.8283C335.9 9.83057 337.18 6.44677 337.241 5.81252L337.287 5.32566L336.79 5.31463C336.033 5.29824 333.154 6.19881 331.553 6.70008L330.709 6.96093L329.166 7.42891C327.86 7.82815 326.55 8.22833 325.235 8.56604C324.393 7.56664 323.424 5.93444 322.621 4.27357C321.841 2.66173 321.224 1.03464 321.041 -0.0504294C322.28 -0.624092 326.777 -1.89075 329.888 -2.76685C331.087 -3.10467 332.083 -3.38545 332.62 -3.55011C335.154 -4.32873 337.633 -4.17921 339.786 -3.363C341.297 -2.79056 342.649 -1.88638 343.749 -0.744124C344.849 0.399605 345.697 1.78157 346.197 3.31053C346.914 5.50612 346.919 8.01328 345.938 10.5669C345.769 11.0073 345.439 11.9243 345.039 13.0393C343.981 15.9878 342.41 20.3652 341.758 21.5429C340.7 21.3047 339.085 20.5963 337.486 19.7328C335.831 18.8388 334.208 17.7854 333.251 16.9195L333.248 16.9203Z" fill="#7CB8A6"/>
</g>
<path opacity="0.92" fill-rule="evenodd" clip-rule="evenodd" d="M11.5913 7.4105C11.2391 7.30673 10.5924 7.09541 9.89548 6.86773C8.65272 6.46203 7.24988 6.0037 6.99056 5.98798L6.79151 5.97614L6.79704 6.17074C6.80565 6.46726 7.23025 7.58345 7.46656 8.2041L7.58976 8.5313L7.81134 9.1296C8.00018 9.63598 8.18948 10.1441 8.35346 10.6549C7.96375 10.997 7.31913 11.3975 6.65947 11.733C6.01929 12.0588 5.36963 12.3212 4.93175 12.4064C4.6733 11.9286 4.06705 10.1834 3.64773 8.97643C3.48605 8.51097 3.35168 8.12446 3.27383 7.9163C2.90583 6.93391 2.91662 5.96125 3.20529 5.10755C3.40774 4.50868 3.74838 3.96748 4.191 3.52229C4.63422 3.07696 5.17948 2.72736 5.79158 2.51234C6.67057 2.20346 7.69072 2.1697 8.74972 2.52163C8.93232 2.5823 9.31216 2.69957 9.77396 2.84205C10.9952 3.21901 12.8082 3.77871 13.3007 4.01925C13.2251 4.43647 12.9694 5.07809 12.6503 5.71517C12.3199 6.37492 11.924 7.02365 11.591 7.4096L11.5913 7.4105Z" fill="#91C696"/>
<path d="M245.234 45.6058C245.28 44.5241 245.121 43.4561 244.641 42.4494C244.228 41.583 243.205 41.0912 242.273 41.0898C239.312 41.0862 238.936 45.0277 237.051 46.548C236.475 47.0126 235.831 47.3908 235.286 47.8917C233.275 49.7416 234.181 53.166 236.028 54.788C237.31 55.9132 239.325 56.5526 240.905 55.673C241.73 55.2139 242.356 54.4506 242.802 53.6141C243.435 52.4267 243.843 51.0572 244.293 49.7921C244.774 48.4452 245.175 47.0434 245.234 45.6058Z" fill="#0E2E35"/>
<path d="M238.885 46.0507C238.885 46.0507 236.711 42.1401 236.182 41.3091C235.653 40.4781 234.275 37.1746 234.226 37.0442C234.177 36.9139 235.175 35.3509 234.952 35.2974C234.73 35.2438 234.481 36.1229 234.243 36.018C234.006 35.9131 233.311 33.8007 233.175 33.9051C232.922 34.1013 233.55 35.2161 233.415 35.286C233.279 35.3559 232.87 34.06 232.605 34.0981C232.34 34.1362 233.11 35.2865 233.036 35.3882C232.962 35.4899 232.162 34.406 232.017 34.6371C231.939 34.7624 232.752 35.583 232.596 35.6597C232.44 35.7365 231.716 35.2056 231.639 35.3596C231.563 35.5135 232.309 35.7228 232.532 36.1315C232.755 36.5402 233.135 36.7218 233.293 37.4838C233.451 38.2458 233.686 41.0057 234.494 42.3821C235.302 43.7584 237.079 46.8054 237.079 46.8054L238.885 46.0507Z" fill="#AA6739"/>
<path d="M250.389 60.4425L247.009 57.8542C247.009 57.8542 246.669 55.4403 246.214 53.2979C245.643 53.4595 245.128 53.9086 244.557 54.0653L245.417 58.8623L249.848 61.1559L251.101 62.7707L251.386 61.1137L250.389 60.4425Z" fill="#AA6739"/>
<path d="M245.718 50.8433C244.794 48.0279 243.76 48.1487 243.76 48.1487L244.559 54.066C245.13 53.9093 245.876 53.5606 246.444 53.3989C246.255 52.5089 245.946 51.5362 245.718 50.8433Z" fill="#3C8E4C"/>
<path d="M235.982 80.4253C235.982 80.4253 235.773 81.8784 235.414 82.3497C235.294 82.5073 235.074 82.7066 234.93 82.9914C234.705 83.4346 234.829 84.0948 234.995 84.4581C235.08 84.6447 234.989 84.6443 235.183 84.7042C235.756 84.8822 236.367 84.5825 236.612 84.0299C236.781 83.6376 236.876 83.2172 236.892 82.7902C236.953 81.4692 237.361 80.7976 237.361 80.7976L235.982 80.4253Z" fill="#B6703C"/>
<path d="M242.257 81.0918C242.257 81.0918 242.386 82.732 242.282 83.2655C242.226 83.5507 241.914 84.1383 242.057 84.4071C242.2 84.6759 242.363 84.7431 242.363 84.7431L246.069 84.8031C246.27 84.8063 246.137 84.6755 245.974 84.5551C245.708 84.3581 245.493 84.2282 244.642 83.8141C244.587 83.7873 244.384 83.6579 244.312 83.6134C244.114 83.4816 243.936 83.3232 243.782 83.1425C243.516 82.8446 243.492 81.3997 243.492 81.3997L242.257 81.0918Z" fill="#B6703C"/>
<path d="M245.153 59.2853C245.153 59.2853 245.619 61.949 245.313 63.6955C245.006 65.4419 243.536 81.628 243.536 81.628L241.901 81.7188C241.901 81.7188 241.558 74.9574 241.62 74.017C241.681 73.0765 242.165 71.5031 242.165 71.5031L242.002 66.044L244.064 58.8726L245.153 59.2853Z" fill="#13375B"/>
<path d="M240.353 58.7255C240.353 58.7255 239.066 60.6731 238.76 62.2851C238.454 63.8972 238.984 68.8509 238.396 70.9628C238.079 72.1062 236.868 73.8722 236.684 75.3498C236.501 76.8274 235.778 80.6981 235.778 80.6981L237.413 81.0237L241.209 71.3579L244.186 62.6212L244.949 58.1216L240.353 58.7255Z" fill="#355389"/>
<path d="M241.392 47.6434C241.392 47.6434 239.688 47.5344 239.014 48.2732C238.341 49.012 240.509 54.8575 240.632 55.7966C240.754 56.7356 240.007 59.2368 240.007 59.2368C240.007 59.2368 244.009 60.0469 245.153 59.2853C245.153 59.2853 245.275 52.5244 245.153 51.8523C245.03 51.1803 244.009 48.4494 243.764 48.181C243.519 47.9126 241.392 47.6434 241.392 47.6434Z" fill="#54AB68"/>
<path d="M241.958 45.3541C241.958 45.3541 241.949 45.4045 241.933 45.4903C241.858 45.9022 241.565 47.2685 241.368 47.6445C241.129 48.0986 242.185 49.5463 243.202 49.3701C243.505 49.3174 242.946 48.0396 242.975 47.9043C243.026 47.645 243.095 47.2917 243.167 46.9293C243.207 46.725 243.248 46.5175 243.286 46.3227C243.395 45.7691 243.484 45.3164 243.484 45.3164L241.958 45.3541Z" fill="#B6703C"/>
<path d="M241.935 45.4908C241.951 45.405 241.96 45.3545 241.96 45.3545L243.483 45.3164C243.483 45.3164 243.392 45.7705 243.286 46.3227L243.167 46.9257C242.932 46.8912 242.686 46.7759 242.441 46.5593C242.188 46.3366 241.998 46.0519 241.888 45.7333C241.908 45.6379 241.923 45.5548 241.935 45.4908Z" fill="#925A2B"/>
<path d="M242.987 41.8733C242.987 41.8733 242.269 41.7897 241.819 42.3755C241.369 42.9613 240.884 44.7713 242.001 45.7557C243.118 46.7402 244.223 45.6259 244.387 44.4443C244.551 43.2628 244.616 41.8278 242.987 41.8733Z" fill="#B6703C"/>
<path d="M244.717 44.4255C244.584 44.6866 244.359 44.831 244.218 44.7483C244.076 44.6657 244.067 44.385 244.2 44.1262C244.334 43.8674 244.558 43.7207 244.7 43.8033C244.842 43.886 244.85 44.1644 244.717 44.4255Z" fill="#B6703C"/>
<path d="M243.064 41.6779C243.064 41.6779 242.104 43.3998 241.418 43.4793C240.732 43.5588 240.642 44.4737 240.642 44.4737C240.642 44.4737 240.887 42.3654 241.566 41.959C242.246 41.5526 243.064 41.6779 243.064 41.6779Z" fill="#0E2E35"/>
<path d="M236.721 83.7402C235.83 83.9037 235.238 83.3801 234.93 82.9878C234.703 83.4319 234.593 84.0949 234.759 84.4595C234.906 84.781 235.335 84.7719 235.672 84.7842C236.029 84.7978 236.304 84.5985 236.481 84.2847C236.579 84.1116 236.659 83.9292 236.721 83.7402Z" fill="#B75742"/>
<path d="M244.314 83.6133C243.334 83.8663 242.609 83.6942 242.204 83.5298C242.1 83.8277 241.961 84.2014 242.035 84.4171C242.125 84.6809 242.253 84.7404 242.366 84.7436C243.261 84.7672 245.644 84.7994 246.327 84.8081C246.348 84.8082 246.369 84.8023 246.387 84.7908C246.405 84.7794 246.42 84.763 246.429 84.7436C246.438 84.7242 246.442 84.7026 246.439 84.6814C246.436 84.6601 246.427 84.6401 246.413 84.6237C246.245 84.4216 244.386 83.6583 244.314 83.6133Z" fill="#B75742"/>
<path d="M241.601 43.912C241.657 44.2176 241.545 44.4978 241.35 44.5382C241.156 44.5786 240.953 44.3629 240.896 44.0573C240.84 43.7517 240.953 43.4711 241.147 43.4306C241.342 43.3902 241.545 43.6059 241.601 43.912Z" fill="#B6703C"/>
<path d="M238.285 44.7847C238.285 44.7847 240.692 47.3857 241.048 48.4337C241.404 49.4818 240.699 50.9812 239.724 51.0466C238.749 51.112 236.578 46.4307 236.578 46.4307L238.285 44.7847Z" fill="#3C8E4C"/>
<path d="M286.377 11.8409L286.368 11.8381C286.283 11.8073 286.196 11.78 286.109 11.7546L286.018 11.7291C285.987 11.721 285.954 11.7133 285.923 11.706C285.891 11.6987 285.858 11.6901 285.825 11.6833C285.792 11.6765 285.763 11.6706 285.734 11.6647L285.629 11.6456C285.599 11.6411 285.569 11.6361 285.538 11.632C285.501 11.6265 285.463 11.6215 285.424 11.6174L285.341 11.6079C285.296 11.6038 285.253 11.6011 285.209 11.5979L285.139 11.5934C285.072 11.5902 285.003 11.5884 284.935 11.5884H253.528C253.455 11.5884 253.382 11.5902 253.31 11.5938C253.167 11.6016 253.025 11.6167 252.883 11.6392C252.813 11.6497 252.744 11.6624 252.675 11.6765C251.791 11.8602 250.989 12.3207 250.385 12.9912C249.781 13.6616 249.406 14.5071 249.315 15.405C249.3 15.5494 249.293 15.6945 249.293 15.8396V80.2443C249.292 81.1165 249.56 81.9678 250.06 82.6827C250.559 83.3975 251.267 83.9413 252.086 84.2403L252.108 84.2476C252.189 84.2766 252.271 84.3025 252.354 84.3266L252.445 84.352L252.541 84.3756C252.573 84.3833 252.606 84.391 252.638 84.3979C252.671 84.4047 252.7 84.4106 252.729 84.4165L252.834 84.4355C252.864 84.4407 252.894 84.4452 252.925 84.4492C252.962 84.4546 253.001 84.4596 253.039 84.4637L253.122 84.4732C253.168 84.4773 253.21 84.4805 253.254 84.4832C253.278 84.4832 253.3 84.4868 253.324 84.4878C253.392 84.4909 253.46 84.4932 253.528 84.4932H284.935C286.06 84.4906 287.138 84.0415 287.932 83.2446C288.726 82.4478 289.171 81.3683 289.17 80.2434V15.8378C289.171 14.9654 288.903 14.114 288.403 13.3989C287.904 12.6839 287.196 12.1399 286.377 11.8409Z" fill="#293737"/>
<path d="M287.117 17.3794H251.346V78.7008H287.117V17.3794Z" fill="#F3FCFF"/>
<path d="M276.876 14.6841H261.648C261.626 14.6841 261.609 14.7018 261.609 14.7236V15.4129C261.609 15.4347 261.626 15.4524 261.648 15.4524H276.876C276.898 15.4524 276.916 15.4347 276.916 15.4129V14.7236C276.916 14.7018 276.898 14.6841 276.876 14.6841Z" fill="white"/>
<path opacity="0.3" d="M269.208 83.4181C270.178 83.4181 270.965 82.6289 270.965 81.6554C270.965 80.6818 270.178 79.8926 269.208 79.8926C268.238 79.8926 267.451 80.6818 267.451 81.6554C267.451 82.6289 268.238 83.4181 269.208 83.4181Z" fill="#DAEEF7"/>
<path opacity="0.2" d="M287.117 76.1279H251.346V78.7008H287.117V76.1279Z" fill="#3CB4C5"/>
<path opacity="0.2" d="M287.117 17.3794H251.346V20.6334H287.117V17.3794Z" fill="#3CB4C5"/>
<g style="mix-blend-mode:multiply" opacity="0.3">
<path d="M258.557 18.8794H227.489C227.233 18.8798 226.98 18.9306 226.744 19.0288C226.508 19.127 226.294 19.2708 226.113 19.4518C225.933 19.6329 225.79 19.8477 225.693 20.0841C225.595 20.3204 225.545 20.5736 225.546 20.8293V33.6928C225.545 33.9484 225.595 34.2016 225.693 34.4379C225.79 34.6743 225.933 34.8891 226.113 35.0702C226.294 35.2513 226.508 35.395 226.744 35.4932C226.98 35.5914 227.233 35.6422 227.489 35.6426H251.949C252.939 37.0285 254.734 39.5119 254.892 39.5119C255.04 39.5119 254.756 37.1675 254.553 35.644H258.557C258.813 35.6438 259.066 35.5931 259.302 35.4948C259.538 35.3966 259.753 35.2528 259.934 35.0715C260.114 34.8903 260.257 34.6753 260.355 34.4387C260.452 34.2021 260.502 33.9486 260.501 33.6928V20.8293C260.502 20.5735 260.452 20.3202 260.354 20.0838C260.257 19.8473 260.114 19.6324 259.933 19.4514C259.753 19.2703 259.538 19.1266 259.302 19.0284C259.066 18.9303 258.813 18.8796 258.557 18.8794Z" fill="#DAEEF7"/>
</g>
<path d="M257.275 15.543H226.209C225.953 15.5434 225.7 15.5941 225.464 15.6923C225.228 15.7905 225.014 15.9342 224.833 16.1153C224.653 16.2963 224.51 16.5111 224.413 16.7473C224.315 16.9836 224.265 17.2368 224.266 17.4924V30.3563C224.265 30.8726 224.469 31.368 224.833 31.7336C225.198 32.0993 225.692 32.3052 226.209 32.3062H250.667C251.657 33.6921 253.451 36.1742 253.61 36.1742C253.758 36.1742 253.474 33.8297 253.272 32.3062H257.275C257.791 32.3052 258.286 32.0993 258.65 31.7336C259.015 31.368 259.219 30.8726 259.218 30.3563V17.4924C259.218 17.2368 259.168 16.9836 259.071 16.7473C258.974 16.5111 258.831 16.2963 258.65 16.1153C258.47 15.9342 258.255 15.7905 258.019 15.6923C257.783 15.5941 257.53 15.5434 257.275 15.543Z" fill="#4A858C"/>
<path d="M242.752 19.7134H227.522C227.498 19.7134 227.478 19.7329 227.478 19.757V20.5189C227.478 20.543 227.498 20.5625 227.522 20.5625H242.752C242.776 20.5625 242.795 20.543 242.795 20.5189V19.757C242.795 19.7329 242.776 19.7134 242.752 19.7134Z" fill="white"/>
<path d="M234.033 21.9546H227.522C227.498 21.9546 227.478 21.9741 227.478 21.9982V22.7601C227.478 22.7842 227.498 22.8037 227.522 22.8037H234.033C234.057 22.8037 234.077 22.7842 234.077 22.7601V21.9982C234.077 21.9741 234.057 21.9546 234.033 21.9546Z" fill="white"/>
<path d="M255.311 21.9546H234.862C234.838 21.9546 234.819 21.9741 234.819 21.9982V22.7601C234.819 22.7842 234.838 22.8037 234.862 22.8037H255.311C255.335 22.8037 255.354 22.7842 255.354 22.7601V21.9982C255.354 21.9741 255.335 21.9546 255.311 21.9546Z" fill="white"/>
<path d="M255.373 19.7134H244.403C244.379 19.7134 244.359 19.7329 244.359 19.757V20.5189C244.359 20.543 244.379 20.5625 244.403 20.5625H255.373C255.397 20.5625 255.417 20.543 255.417 20.5189V19.757C255.417 19.7329 255.397 19.7134 255.373 19.7134Z" fill="white"/>
<path d="M255.375 26.3477H227.522C227.498 26.3477 227.478 26.3672 227.478 26.3912V27.1532C227.478 27.1773 227.498 27.1968 227.522 27.1968H255.375C255.399 27.1968 255.418 27.1773 255.418 27.1532V26.3912C255.418 26.3672 255.399 26.3477 255.375 26.3477Z" fill="white"/>
<path d="M241.869 24.1953H227.522C227.498 24.1953 227.478 24.2148 227.478 24.2389V25.0009C227.478 25.0249 227.498 25.0445 227.522 25.0445H241.869C241.893 25.0445 241.912 25.0249 241.912 25.0009V24.2389C241.912 24.2148 241.893 24.1953 241.869 24.1953Z" fill="white"/>
<path d="M255.372 24.1953H242.791C242.767 24.1953 242.747 24.2148 242.747 24.2389V25.0009C242.747 25.0249 242.767 25.0445 242.791 25.0445H255.372C255.396 25.0445 255.415 25.0249 255.415 25.0009V24.2389C255.415 24.2148 255.396 24.1953 255.372 24.1953Z" fill="white"/>
<path d="M282.762 11.875L292.233 11.875C292.255 11.875 292.272 11.8575 292.272 11.8359V11.1553C292.272 11.1337 292.255 11.1162 292.233 11.1162L282.762 11.1162C282.741 11.1162 282.723 11.1337 282.723 11.1553V11.8359C282.723 11.8575 282.741 11.875 282.762 11.875Z" fill="white"/>
<g style="mix-blend-mode:multiply" opacity="0.3">
<path d="M279.919 8.98145H307.673C308.134 8.98229 308.576 9.16622 308.902 9.49279C309.227 9.81936 309.41 10.2618 309.409 10.7229V22.2155C309.409 22.4439 309.365 22.6701 309.278 22.8812C309.191 23.0924 309.063 23.2843 308.902 23.446C308.74 23.6078 308.549 23.7362 308.338 23.8239C308.127 23.9117 307.901 23.957 307.673 23.9574H285.822C284.938 25.1957 283.334 27.413 283.193 27.413C283.06 27.413 283.315 25.3187 283.495 23.9574H279.919C279.69 23.957 279.464 23.9117 279.254 23.8239C279.043 23.7362 278.851 23.6078 278.69 23.446C278.529 23.2843 278.401 23.0924 278.314 22.8812C278.227 22.6701 278.182 22.4439 278.183 22.2155V10.7229C278.182 10.4945 278.227 10.2683 278.314 10.0572C278.401 9.84608 278.529 9.65418 278.69 9.49247C278.852 9.33076 279.043 9.20239 279.254 9.11471C279.465 9.02703 279.691 8.98174 279.919 8.98145Z" fill="#DAEEF7"/>
</g>
<path d="M281.063 6H308.816C309.045 6.00036 309.271 6.0457 309.482 6.13344C309.692 6.22117 309.884 6.34959 310.045 6.51134C310.206 6.6731 310.334 6.86503 310.421 7.07617C310.508 7.28731 310.553 7.51352 310.552 7.74189V19.234C310.553 19.4624 310.508 19.6886 310.421 19.8998C310.334 20.1109 310.206 20.3028 310.045 20.4646C309.884 20.6263 309.692 20.7548 309.482 20.8425C309.271 20.9302 309.045 20.9756 308.816 20.9759H286.965C286.081 22.2142 284.478 24.4316 284.336 24.4316C284.204 24.4316 284.459 22.3373 284.639 20.9759H281.062C280.834 20.9756 280.608 20.9302 280.397 20.8425C280.186 20.7548 279.995 20.6263 279.833 20.4646C279.672 20.3028 279.544 20.1109 279.457 19.8998C279.37 19.6886 279.326 19.4624 279.326 19.234V7.74189C279.326 7.51349 279.37 7.28723 279.457 7.07606C279.545 6.8649 279.672 6.67295 279.834 6.51118C279.995 6.34942 280.186 6.22102 280.397 6.13331C280.608 6.0456 280.834 6.0003 281.063 6V6Z" fill="#4A858C"/>
<path d="M298.546 10.4854L306.953 10.4854C306.974 10.4854 306.992 10.4679 306.992 10.4463V9.76562C306.992 9.74405 306.974 9.72656 306.953 9.72656L298.546 9.72656C298.524 9.72656 298.507 9.74405 298.507 9.76562V10.4463C298.507 10.4679 298.524 10.4854 298.546 10.4854Z" fill="white"/>
<path d="M301.299 12.9629H306.953C306.974 12.9629 306.992 12.9454 306.992 12.9238V12.2432C306.992 12.2216 306.974 12.2041 306.953 12.2041H301.299C301.278 12.2041 301.26 12.2216 301.26 12.2432V12.9238C301.26 12.9454 301.278 12.9629 301.299 12.9629Z" fill="white"/>
<path d="M293.552 12.9629H300.527C300.549 12.9629 300.566 12.9454 300.566 12.9238V12.2432C300.566 12.2216 300.549 12.2041 300.527 12.2041H293.552C293.531 12.2041 293.513 12.2216 293.513 12.2432V12.9238C293.513 12.9454 293.531 12.9629 293.552 12.9629Z" fill="white"/>
<path d="M282.805 12.9629L292.585 12.9629C292.606 12.9629 292.624 12.9454 292.624 12.9238V12.2432C292.624 12.2216 292.606 12.2041 292.585 12.2041L282.805 12.2041C282.784 12.2041 282.766 12.2216 282.766 12.2432V12.9238C282.766 12.9454 282.784 12.9629 282.805 12.9629Z" fill="white"/>
<path d="M282.76 10.4854L296.913 10.4854C296.934 10.4854 296.952 10.4679 296.952 10.4463V9.76562C296.952 9.74405 296.934 9.72656 296.913 9.72656L282.76 9.72656C282.738 9.72656 282.721 9.74405 282.721 9.76562V10.4463C282.721 10.4679 282.738 10.4854 282.76 10.4854Z" fill="white"/>
<path d="M282.762 17.8169L306.953 17.8169C306.974 17.8169 306.992 17.7994 306.992 17.7778V17.0972C306.992 17.0756 306.974 17.0581 306.953 17.0581L282.762 17.0581C282.74 17.0581 282.723 17.0756 282.723 17.0972V17.7778C282.723 17.7994 282.74 17.8169 282.762 17.8169Z" fill="white"/>
<path d="M294.493 15.4189L306.953 15.4189C306.974 15.4189 306.992 15.4015 306.992 15.3799V14.6992C306.992 14.6776 306.974 14.6602 306.953 14.6602L294.493 14.6602C294.472 14.6602 294.454 14.6776 294.454 14.6992V15.3799C294.454 15.4015 294.472 15.4189 294.493 15.4189Z" fill="white"/>
<path d="M282.76 15.4189L293.792 15.4189C293.814 15.4189 293.831 15.4015 293.831 15.3799V14.6992C293.831 14.6776 293.814 14.6602 293.792 14.6602L282.76 14.6602C282.739 14.6602 282.721 14.6776 282.721 14.6992V15.3799C282.721 15.4015 282.739 15.4189 282.76 15.4189Z" fill="white"/>
<path d="M261.367 37.2114C261.367 37.2114 256.125 37.9679 256.926 43.0265C257.672 47.7432 262.167 46.785 263.322 46.5503C264.476 46.3155 261.367 37.2114 261.367 37.2114Z" fill="#F7CC7F"/>
<path d="M263.321 46.5506C263.859 46.4403 263.472 44.4082 262.905 42.2681C260.975 42.6463 258.825 43.0686 257.001 43.4287C257.933 47.6858 262.201 46.7776 263.321 46.5506Z" fill="#E8BA70"/>
<path d="M264.381 47.4236C264.381 47.4236 265.532 51.534 265.229 54.7276C264.946 57.7065 265.37 58.2028 266.477 58.1083C267.584 58.0139 270.27 57.3518 270.318 56.2879C270.365 55.2239 269.87 49.7635 268.009 46.8323C266.148 43.9012 264.381 47.4236 264.381 47.4236Z" fill="#96D9C9"/>
<path d="M266.17 45.709C265.432 46.2049 264.381 47.4236 264.381 47.4236C264.381 47.4236 265.532 51.5341 265.229 54.7277C264.946 57.7065 265.37 58.2029 266.477 58.1084C267.035 58.0498 267.586 57.941 268.125 57.7833C268.566 50.4629 266.678 46.5377 266.17 45.709Z" fill="#50BFA5"/>
<path d="M277.245 27.248C277.245 27.248 268.552 33.5772 265.742 35.4921L264.099 37.9387L265.265 45.0657L268.075 46.4484L281.804 49.1611L281.486 47.6172L278.994 40.7028L277.723 32.8311L277.351 27.9923L277.245 27.248Z" fill="#96D9C9"/>
<path d="M278.992 40.704L278.659 38.6406L264.766 42.0236L265.264 45.0656L268.073 46.4483L281.802 49.161L281.484 47.6185L278.992 40.704Z" fill="#50BFA5"/>
<path d="M265.741 35.4918C265.741 35.4918 264.593 41.5371 268.073 46.4481C268.073 46.4481 268.268 46.9022 267.843 47.187L265.252 47.849C265.252 47.849 264.051 48.2759 263.038 46.5503C262.025 44.8248 260.234 40.9477 261.295 36.6693C261.295 36.6693 261.553 35.5109 262.967 35.2979L264.852 34.9433C264.852 34.9433 265.688 34.8121 265.741 35.4918Z" fill="#3C8F7C"/>
<path d="M277.243 27.2479C277.243 27.2479 279.505 25.5813 280.812 25.6168C282.12 25.6522 283.427 27.3877 284.275 28.8077C285.123 30.2276 287.35 35.793 287.562 39.5519C287.774 43.3109 287.738 48.6646 285.901 49.3026C284.063 49.9406 281.802 49.161 281.802 49.161C281.802 49.161 278.833 46.6081 277.102 38.6651C275.37 30.7221 277.243 27.2479 277.243 27.2479Z" fill="#256653"/>
<path d="M284.601 49.5154C284.601 49.5154 286.714 46.7677 285.637 39.3483C283.941 27.6668 279.666 25.8999 279.666 25.8999C279.666 25.8999 276.501 28.3116 279.524 39.6003C282.015 48.9024 284.601 49.5154 284.601 49.5154Z" fill="#3C8F7C"/>
<path d="M278.512 34.8506C278.717 36.226 279.041 37.7999 279.524 39.6008C279.765 40.5022 280.008 41.3209 280.25 42.0666C281.567 41.6097 283.691 40.4654 282.783 37.562C281.94 34.8719 279.75 34.7075 278.512 34.8506Z" fill="#F7CC7F"/>
<path d="M279.524 39.6026C279.765 40.5039 280.008 41.3226 280.25 42.0683C281.547 41.6178 283.632 40.4985 282.819 37.6831L279.245 38.5091C279.331 38.8627 279.424 39.2272 279.524 39.6026Z" fill="#E8BA70"/>
<g style="mix-blend-mode:multiply" opacity="0.3">
<path d="M268.073 46.4485C266.983 44.9096 266.347 43.259 265.987 41.7183L261.394 42.5878C261.759 43.9775 262.311 45.3108 263.037 46.5507C264.05 48.2762 265.252 47.8508 265.252 47.8508L267.843 47.1864C268.267 46.9035 268.073 46.4485 268.073 46.4485Z" fill="#3C8F7C"/>
</g>
<path d="M310.253 38.4936C310.44 38.5168 310.6 38.3074 310.553 38.1303C310.478 37.8479 310.407 37.5641 310.335 37.2803C310.174 36.6545 310.149 36.635 310.193 36.5819C310.298 36.4556 310.55 36.6028 310.638 36.6659C310.833 36.8048 310.995 36.9947 311.218 37.0927C311.651 37.2844 312.08 37.0373 312.011 36.541C311.947 36.0869 311.856 35.6328 311.762 35.1787C312.217 35.4217 312.663 35.6782 313.121 35.9139C313.154 35.934 313.193 35.9439 313.233 35.9425C313.272 35.941 313.31 35.9281 313.342 35.9055C313.374 35.8829 313.399 35.8515 313.414 35.815C313.428 35.7785 313.432 35.7386 313.424 35.7C313.376 35.3004 313.232 34.118 313.185 33.7279C313.172 33.6271 313.06 33.1639 313.162 33.1117C313.253 33.0663 313.557 33.2561 313.631 33.2897C314.032 33.4759 314.175 33.5363 315.499 34.1121C315.657 34.1807 315.86 33.9981 315.803 33.8333C315.243 32.209 315.446 32.1372 315.161 31.848C315.097 31.783 315.009 31.8135 314.973 31.8889C314.883 32.0809 314.875 32.1332 315.046 32.8792C315.09 33.0724 315.139 33.264 315.193 33.4541C313.601 32.7244 313.217 32.5005 312.881 32.8084C312.647 33.0204 312.702 33.1135 312.98 35.3513C312.517 35.072 312.04 34.8223 311.565 34.5621C311.526 34.539 311.482 34.5276 311.437 34.5293C311.392 34.5309 311.349 34.5455 311.312 34.5713C311.276 34.5971 311.247 34.633 311.23 34.6747C311.214 34.7163 311.209 34.7619 311.218 34.8059C311.458 36.4325 311.53 36.4652 311.512 36.6141C311.512 36.6182 311.593 36.6641 311.467 36.6141C311.252 36.5283 310.941 36.0865 310.503 36.0097C310.119 35.9421 309.674 36.1405 309.637 36.571C309.616 36.8207 309.679 36.9306 309.888 37.8488C309.414 37.8051 308.936 37.818 308.466 37.8874C308.251 37.9174 308.115 37.965 307.945 38.1022C307.809 38.2143 307.86 38.4773 308.036 38.519C308.536 38.6407 308.864 38.3229 310.253 38.4936Z" fill="#F7CC7F"/>
<path d="M317.806 45.0443C317.866 44.6085 317.964 44.1789 318.1 43.7606C318.127 43.6784 318.159 43.5195 318.258 43.4927C318.497 43.4273 318.696 43.8642 319.421 44.2647C319.736 44.4381 320.37 44.825 320.653 44.4168C320.798 44.2075 320.834 43.9005 320.906 43.6598C320.96 43.4782 321.021 43.2965 321.077 43.1149C322.231 43.8451 322.137 43.8978 322.46 43.8578C322.503 43.8494 322.541 43.8242 322.566 43.7877C322.591 43.7512 322.6 43.7064 322.592 43.663C322.506 43.3556 322.517 43.4391 321.072 42.5042C320.94 42.4188 320.733 42.466 320.685 42.6304C320.612 42.8774 320.345 44.0154 320.289 44.1498C320.279 44.1371 320.215 44.1303 320.202 44.1262C319.682 43.9513 319.297 43.6294 318.878 43.2906C318.535 43.0132 318.005 42.852 317.734 43.3161C317.587 43.5676 317.448 44.1362 317.36 44.5794C316.666 44.1057 315.975 43.6258 315.279 43.1585C315.143 43.0677 314.894 43.1131 314.852 43.2975C314.737 43.8079 314.606 44.3128 314.47 44.8168C314.063 44.5335 313.703 44.1892 313.401 43.796C313.178 43.5054 312.697 43.796 313.311 44.4899C313.643 44.8892 314.04 45.2303 314.484 45.4989C314.633 45.5897 314.857 45.5443 314.912 45.3595C315.061 44.8641 315.188 44.3605 315.305 43.8569C316.002 44.3196 316.704 44.776 317.4 45.2391C317.569 45.3531 317.778 45.2387 317.806 45.0443Z" fill="#F47458"/>
<path opacity="0.7" d="M317.47 55.8769C317.428 56.0304 317.496 56.1566 317.632 56.2252C318.299 56.5621 318.976 56.8346 319.721 56.9245C320.108 56.9699 320.139 56.3846 319.767 56.3165C319.185 56.2098 318.593 56.069 318.046 55.8261C318.183 55.4078 318.366 55.0057 318.591 54.6268C318.676 54.4829 318.636 54.2431 318.452 54.1936C317.994 54.071 316.245 53.6591 316.224 53.6732C316.232 53.6593 316.236 53.6437 316.237 53.6278C316.257 53.4348 316.577 52.8558 316.645 52.5652C316.724 52.2419 316.336 52.0003 316.086 51.8991C315.58 51.6943 314.892 51.8991 314.445 51.5449C314.015 51.2057 314.791 50.604 314.576 49.8893C314.41 49.3385 313.849 49.3217 312.978 49.2354C312.765 49.2145 312.557 49.1963 312.395 49.3643C312.373 49.3855 312.358 49.4131 312.352 49.4433C312.346 49.4735 312.35 49.5048 312.363 49.5328C312.542 49.8366 312.869 49.8212 313.658 49.9206C313.759 49.9333 313.937 49.9247 314.001 50.0205C314.215 50.3406 313.607 50.8642 313.78 51.5104C313.917 52.0135 314.416 52.2478 314.877 52.3277C315.24 52.3895 315.728 52.3146 316.044 52.5457C315.935 52.8427 315.817 53.1397 315.73 53.4425C315.636 53.7736 315.736 54.0537 316.06 54.18C316.419 54.3194 316.816 54.383 317.187 54.4751C317.437 54.5373 317.687 54.6005 317.938 54.6604C317.744 55.0504 317.588 55.4577 317.47 55.8769Z" fill="#41747A"/>
<path d="M315.254 60.0783C315.001 59.7604 314.38 59.4235 314.034 59.7963C313.873 59.9693 313.853 60.2367 314.068 60.3866C314.283 60.5364 314.529 60.471 314.643 60.7376C314.742 60.9646 314.571 61.2021 314.383 61.3247C313.809 61.6989 312.947 61.2752 312.521 60.8461C311.845 60.165 312.048 58.9671 313.084 58.6733C313.408 58.5825 313.735 58.6379 314.065 58.6579C314.246 58.6688 314.408 58.424 314.256 58.2796C313.668 57.7247 312.682 57.919 312.097 58.3849C311.484 58.874 311.239 59.7581 311.45 60.5056C311.687 61.3406 312.481 61.9586 313.291 62.1898C314.977 62.6707 316.078 61.114 315.254 60.0783Z" fill="#3C8F7C"/>
<path d="M307.65 25.0133L307.622 28.0248L309.529 26.2284L315.546 22.1416L310.635 23.2123C310.635 23.2123 308.181 24.1423 308.059 24.2836C307.938 24.4248 307.65 25.0133 307.65 25.0133Z" fill="#3C8E4C"/>
<path d="M305.232 23.4957L315.548 22.1421L307.651 25.0129L305.232 23.4957Z" fill="#54AB68"/>
<path d="M311.337 27.583L308.364 25.7376L315.549 22.1421L311.337 27.583Z" fill="#54AB68"/>
<path d="M294.569 37.4449C294.571 37.2021 294.586 36.9595 294.615 36.7184C294.641 36.4963 294.68 36.2715 294.728 36.0499L294.968 36.1031C294.922 36.3169 294.883 36.5335 294.858 36.7479C294.83 36.9794 294.815 37.2122 294.813 37.4454C294.813 37.5135 294.813 37.5816 294.813 37.6488L294.567 37.6542C294.569 37.5848 294.569 37.5135 294.569 37.4449ZM295.242 34.5269C295.464 34.0394 295.728 33.572 296.031 33.1297L296.234 33.2682C295.939 33.6994 295.681 34.1551 295.465 34.6304L295.242 34.5269ZM302.893 33.0856L302.847 33.0634L302.957 32.844L302.994 32.8622C303.003 32.8647 303.011 32.8662 303.02 32.8668C303.156 32.8831 303.504 32.84 303.685 32.6992C303.844 32.5705 303.962 32.3979 304.023 32.2029L304.255 32.2828C304.177 32.5226 304.032 32.7346 303.835 32.8931C303.584 33.0888 303.162 33.1315 302.991 33.1111C302.957 33.1079 302.924 33.0993 302.893 33.0856ZM297.027 31.8759C297.388 31.4829 297.773 31.1128 298.18 30.7679L298.338 30.9555C297.939 31.2938 297.561 31.6568 297.208 32.0421L297.027 31.8759ZM301.688 31.3024C301.658 31.0611 301.658 30.8171 301.688 30.5759C301.704 30.4383 301.729 30.3018 301.761 30.1672L301.999 30.2249C301.969 30.3498 301.946 30.4764 301.931 30.604C301.904 30.8257 301.904 31.0498 301.931 31.2715C301.95 31.4247 301.985 31.5754 302.035 31.7215L301.802 31.801C301.747 31.6391 301.709 31.4721 301.688 31.3024ZM302.703 29.9152L302.67 29.9043L302.746 29.6709L302.782 29.6827C303.313 29.8643 303.777 30.218 304.053 30.6531L303.847 30.7857C303.6 30.3965 303.183 30.0818 302.703 29.9152ZM299.58 29.9665C299.839 29.8502 300.314 29.6486 300.571 29.6032C300.77 29.5691 300.954 29.5442 301.132 29.5274L301.155 29.7726C300.983 29.7885 300.805 29.8125 300.61 29.8457C300.442 29.8747 300.101 30.0001 299.677 30.1899L299.58 29.9665ZM302.423 28.6878C302.721 28.2359 303.084 27.8306 303.5 27.4849L303.657 27.6742C303.259 28.0044 302.912 28.3917 302.628 28.8235L302.423 28.6878Z" fill="#6DB1B5"/>
<path d="M292.372 52.2657L292.247 52.3783C292.217 52.4062 292.178 52.4212 292.137 52.4202C292.096 52.4192 292.058 52.4022 292.03 52.3729L289.805 49.9171C289.792 49.9019 289.782 49.8843 289.775 49.8652C289.769 49.8462 289.767 49.826 289.768 49.806C289.77 49.786 289.775 49.7665 289.784 49.7486C289.794 49.7308 289.806 49.7149 289.821 49.7019L289.947 49.5893C289.976 49.5614 290.016 49.5464 290.056 49.5474C290.097 49.5484 290.136 49.5654 290.164 49.5947L292.389 52.05C292.415 52.0808 292.428 52.1209 292.425 52.1613C292.422 52.2018 292.403 52.2393 292.372 52.2657Z" fill="#13375B"/>
<path d="M299.921 50.2705C299.624 50.0276 297.323 51.0425 297.352 51.3935C297.381 51.7445 295.747 55.1647 295.747 55.1647L292.922 52.9047C292.897 52.823 292.629 51.9439 292.616 51.7868C292.602 51.6219 292.125 51.3327 291.903 51.3758C291.682 51.4189 292.093 51.6973 292.12 51.7486C292.193 51.888 291.909 51.9402 291.909 51.9402C291.909 51.9402 291.092 51.4907 291.075 51.2264C291.059 50.9621 290.89 50.409 290.712 50.5239C290.621 50.5839 290.621 50.978 290.65 51.1633C290.598 50.9517 290.524 50.7124 290.451 50.6888C290.319 50.6456 290.253 50.8141 290.277 50.8967C290.302 50.9794 290.515 51.8785 290.579 51.9797C290.644 52.081 291.961 53.144 292.151 53.3756C292.151 53.3756 295.805 57.5669 296.065 57.6763C296.292 57.7726 297.107 56.3281 297.876 55.3691C298.645 54.41 300.851 51.0289 299.921 50.2705Z" fill="#B6703C"/>
<path d="M307.293 81.0888C307.293 81.0888 307.795 81.5806 307.806 81.7608C307.818 81.9411 307.852 83.8742 307.646 84.0545C307.44 84.2347 306.839 84.3628 307.033 84.5658C307.179 84.7192 308.304 84.6866 309.05 84.6452C309.268 84.633 309.541 82.8897 309.627 82.6336C309.753 82.2617 310.057 81.4235 309.945 81.1642C309.889 81.0375 309.624 80.7777 309.25 80.5357C308.857 80.2805 308.478 79.7129 308.478 79.7129L307.293 81.0888Z" fill="#AA6739"/>
<path d="M302.091 82.2338C302.091 82.2338 302.54 83.5052 302.541 83.5107C302.574 83.7128 302.705 84.2109 302.705 84.3944C302.705 85.0837 299.608 83.8095 300.302 83.5043C300.365 83.4766 300.562 83.2555 300.583 83.0212C300.615 82.6579 300.322 82.2065 300.322 82.2065L302.091 82.2338Z" fill="#B6703C"/>
<path d="M297.232 58.5166C297.232 58.5166 297.005 60.8002 297.005 60.8325C297.005 64.5256 296.275 71.7407 296.415 72.435C296.753 74.1287 300.397 82.7687 300.397 82.7687L302.366 82.5326L299.8 72.1879L300.744 68.0239L302.08 59.7935L297.232 58.5166Z" fill="#355389"/>
<path d="M303.842 60.5364L304.216 62.7001L305.226 71.6067L309.077 80.3116C309.077 80.3116 308.535 81.5781 307.736 81.7561L301.606 72.8191L297.8 61.3832L297.933 58.8403L303.842 60.5364Z" fill="#13375B"/>
<path d="M296.447 53.0804L299.178 53.3601C299.178 53.3601 299.303 51.1142 299.303 50.0425C299.303 48.7424 299.193 47.0682 299.036 47.1041C298.597 47.2053 298.006 47.4487 297.654 47.9342C296.435 49.6134 296.447 53.0804 296.447 53.0804Z" fill="#3C8E4C"/>
<path d="M297.788 49.8129C297.731 50.2094 296.681 60.9836 296.681 60.9836C301.653 63.3935 304.397 61.4132 304.397 61.4132C304.397 61.4132 304.234 53.8466 304.429 52.8168C304.558 52.1356 304.719 47.6079 304.279 47.4812C303.714 47.3182 303.067 47.1456 302.361 47.0725C301.759 47.0098 299.418 46.9735 299 47.1143C299 47.1143 298.029 48.1464 297.788 49.8129Z" fill="#54AB68"/>
<path d="M309.225 80.5239C309.225 80.5239 308.068 83.7934 307.615 83.951C307.494 83.9927 306.917 84.099 306.808 84.3551C306.776 84.4323 306.808 84.6902 306.808 84.6902H309.22C309.22 84.6902 309.526 83.2498 309.646 82.6168C309.646 82.6168 310.284 81.0702 310.214 80.9299C310.143 80.7896 309.225 80.5239 309.225 80.5239Z" fill="#184655"/>
<path d="M302.881 84.6219L302.526 83.4976C302.526 83.4976 301.781 83.8154 301.409 83.7614C301.036 83.7073 300.309 83.4976 300.309 83.4976C298.823 83.9884 297.605 84.2268 297.826 84.6219H302.881Z" fill="#184655"/>
<path d="M296.063 57.6756C296.037 57.6589 296.012 57.6402 295.988 57.6198C296.079 56.564 296.061 55.5414 295.73 55.1954C295.739 55.179 295.811 55.0251 295.886 54.8652C296.269 55.1622 296.451 55.951 296.379 57.232C296.368 57.3213 296.351 57.4098 296.329 57.4971C296.218 57.6207 296.117 57.6997 296.063 57.6756Z" fill="#B6703C"/>
<path d="M309.322 61.0987C309.324 61.0756 309.324 61.0523 309.322 61.0292C309.248 60.2831 308.63 54.0171 308.526 53.7506C308.433 53.5103 305.666 49.5361 305.666 49.5361L304.303 51.3979L306.967 54.9621C307.026 55.1891 307.987 59.4185 307.987 59.4185C307.987 59.4185 308.184 60.1905 308.272 60.6514C308.232 60.7626 308.193 60.8675 308.158 60.9538C308.077 61.117 307.981 61.272 307.871 61.4165C307.752 61.5768 307.553 61.9265 307.531 62.02C307.502 62.129 307.452 62.3551 307.423 62.4918C307.393 62.6285 307.354 62.787 307.348 62.861C307.33 62.9312 307.301 62.9981 307.262 63.0594C307.25 63.0803 307.244 63.1043 307.246 63.1283C307.248 63.1522 307.258 63.175 307.273 63.1936C307.288 63.2123 307.309 63.2259 307.332 63.2326C307.355 63.2394 307.379 63.239 307.402 63.2315C307.499 63.1993 307.574 63.074 307.62 62.9954C307.752 62.7743 307.822 62.3706 307.854 62.3919C307.886 62.4133 308.001 63.098 308.02 63.1757C308.038 63.2533 308.176 64.048 308.253 64.1933C308.331 64.3386 308.435 64.3145 308.461 64.2237C308.485 64.1452 308.375 63.0326 308.375 63.0326C308.375 63.0326 308.362 62.8905 308.424 62.935C308.486 62.9795 308.587 63.9894 308.63 64.137C308.673 64.2846 308.771 64.364 308.855 64.2446C308.956 64.0998 308.782 63.0286 308.782 63.0286C308.782 63.0286 308.762 62.8923 308.819 62.9069C308.877 62.9214 308.949 63.7801 308.993 63.8545C309.038 63.929 309.15 63.9554 309.204 63.8314C309.267 63.6852 309.104 62.7302 309.104 62.7302C309.104 62.7302 309.112 62.6544 309.149 62.6794C309.186 62.7043 309.298 63.4341 309.372 63.5017C309.379 63.5095 309.388 63.5156 309.398 63.5198C309.408 63.524 309.418 63.5262 309.429 63.5262C309.44 63.5262 309.45 63.524 309.46 63.5198C309.47 63.5156 309.479 63.5095 309.486 63.5017C309.622 63.4109 309.413 62.7148 309.416 62.3697C309.418 62.0246 309.258 61.6372 309.306 61.2267C309.308 61.2017 309.317 61.1382 309.322 61.0987Z" fill="#AA6739"/>
<path d="M307.829 52.0531L305.463 53.6465C305.463 53.6465 304.13 51.6558 303.414 50.9474C302.518 50.0592 303.74 47.3396 304.318 47.4936C305.61 47.8378 307.829 52.0531 307.829 52.0531Z" fill="#54AB68"/>
<path d="M302.186 44.7427L302.54 47.0826C302.54 47.0826 301.248 49.8689 300.476 49.6255C299.829 49.4225 300.227 46.9573 300.227 46.9573C300.227 46.9573 300.58 45.6336 300.474 44.9711C300.369 44.3086 302.186 44.7427 302.186 44.7427Z" fill="#B6703C"/>
<path d="M300.475 44.9733C300.369 44.3108 302.187 44.7431 302.187 44.7431L302.216 44.937C302.17 45.0566 302.103 45.1672 302.019 45.2634C301.613 45.7016 300.979 45.965 300.43 45.985C300.485 45.6276 300.518 45.2448 300.475 44.9733Z" fill="#925A2B"/>
<path d="M302.485 41.4322C302.536 41.4131 302.897 44.0973 302.212 44.8379C301.528 45.5785 300.196 45.8178 299.718 45.2366C299.19 44.5931 299.216 41.7088 300.279 40.9491C301.343 40.1894 302.485 41.4322 302.485 41.4322Z" fill="#B6703C"/>
<path d="M300.686 39.5117C301.281 39.6408 301.822 39.9504 302.234 40.3981C302.608 40.4435 303.115 40.6497 303.638 41.5197C304.283 42.5896 303.807 43.7752 303.057 44.3564C302.308 44.9377 302.318 45.6102 302.318 45.6102L302.199 45.2628C302.111 45.0001 302.079 44.7215 302.106 44.4455C302.12 44.2759 302.161 44.1097 302.227 43.9532C302.409 43.565 301.84 43.307 301.682 42.9837C301.56 42.7349 301.554 42.1664 301.361 41.7545L301.13 41.4403C301.13 41.4403 300.598 41.0248 300.077 41.1424C299.557 41.26 299.632 39.2956 300.686 39.5117Z" fill="#184655"/>
<path d="M301.715 43.4631C301.71 43.7905 301.858 44.0585 302.047 44.0616C302.235 44.0648 302.392 43.8024 302.398 43.475C302.403 43.1476 302.255 42.8792 302.066 42.876C301.878 42.8728 301.721 43.1335 301.715 43.4631Z" fill="#B6703C"/>
<path d="M300.607 44.2167L299.576 44.1631C299.576 44.1631 299.58 44.5572 300.03 44.594C300.584 44.6385 300.607 44.2167 300.607 44.2167Z" fill="white"/>
<path d="M261.528 84.5222L262.032 84.4264L259.854 72.833L259.35 72.9288L261.528 84.5222Z" fill="#0E2E35"/>
<path d="M255.909 84.5749H255.303L257.562 72.833L258.067 72.9288L255.909 84.5749Z" fill="#0E2E35"/>
<path d="M250.331 84.5745L250.823 84.5808L248.656 72.8853L248.152 72.9811L250.331 84.5745Z" fill="#0E2E35"/>
<path d="M252.528 57.0194C250.53 57.2337 247.948 57.4598 245.353 61.8781C242.519 66.7047 244.011 73.9147 246.248 75.9182C248.486 77.9216 255.793 80.3955 261.935 76.6901C261.935 76.6901 265.644 74.446 263.741 70.7211C260.812 64.9887 261.225 63.7935 259.916 61.5485C258.606 59.3034 256.765 56.5639 252.528 57.0194Z" fill="#FAE0B2"/>
<path d="M245.359 61.8763C247.13 58.8621 248.895 57.7999 250.472 57.3608C249.862 57.9966 249.243 58.8094 248.624 59.8638C245.79 64.6903 247.282 71.8999 249.519 73.9038C251.503 75.6803 257.474 77.8263 263.084 75.7066C262.748 76.0835 262.364 76.4143 261.941 76.6902C255.799 80.3937 248.491 77.9198 246.254 75.9182C244.017 73.9166 242.525 66.7029 245.359 61.8763Z" fill="#F7CC7F"/>
<path d="M258.939 64.3555L259.452 65.8998L257.888 65.2827L258.939 64.3555Z" fill="#F79C8D"/>
<path d="M257.327 59.7588C257.432 59.7633 257.717 59.8587 258.135 60.6484C258.668 61.6564 259.448 64.702 259.448 64.702L257.121 65.5689L256.822 64.9332L256.329 60.0394C256.329 60.0394 257.298 59.7579 257.327 59.7588Z" fill="#B6C462"/>
<path d="M254.252 59.3203C254.917 59.3203 256.564 59.5151 257.328 59.7594C257.328 59.7594 257.889 64.5851 256.823 68.2509C256.584 69.0719 257.02 71.6534 257.02 71.6534L250.124 71.5626C250.124 71.5626 250.941 65.3211 250.633 64.3126C250.325 63.3041 250.318 59.7908 250.318 59.7908C250.318 59.7908 250.364 59.7835 251.868 59.5237C252.656 59.3952 253.453 59.3272 254.252 59.3203Z" fill="#D0DD85"/>
<path d="M253.448 80.6108C253.448 80.6108 253.6 82.3714 253.881 82.859C254.161 83.3467 253.866 84.1759 253.851 84.2894C253.836 84.403 253.261 84.5655 252.346 84.4683C251.43 84.3712 251.445 84.1596 251.519 83.8181C251.592 83.4766 252.08 83.038 252.109 82.7128C252.138 82.3877 251.828 81.2175 251.828 81.2175L253.448 80.6108Z" fill="#B6703C"/>
<path d="M256.24 70.2017C256.24 70.2017 261 69.9365 262.063 70.5808C263.127 71.2252 261.871 72.5466 261.871 72.5466C261.871 72.5466 257.996 74.2317 251.507 74.6064C249.971 74.6972 249.838 70.6004 250.126 70.2612C250.413 69.9219 256.24 70.2017 256.24 70.2017Z" fill="#256653"/>
<path d="M252.232 84.6054C251.289 84.5051 251.406 84.0419 251.482 83.6904C251.527 83.4702 251.8 83.2109 251.961 82.9639C252.045 83.0311 252.182 83.1496 252.592 83.2704C253.017 83.3962 253.599 83.1478 253.971 82.992C254.067 83.3897 254.109 83.7986 254.096 84.2076C254.081 84.3261 253.174 84.7058 252.232 84.6054Z" fill="#184655"/>
<path d="M252.752 73.6071C252.942 75.0461 253.884 82.2108 253.884 82.2108L251.699 82.4832C251.699 82.4832 249.014 73.1303 249.15 71.6999C249.286 70.2695 250.294 70.1492 250.294 70.1492C250.294 70.1492 252.248 69.7973 252.752 73.6071Z" fill="#3C8F7C"/>
<path d="M250.243 60.3286C250.888 60.0866 251.203 65.8962 251.29 68.2875C252.432 68.3974 254.423 68.2875 254.918 68.2512C255.151 68.2334 255.69 68.0368 255.92 68.0064C256.15 67.976 256.374 67.961 256.489 67.9792C256.535 67.9869 257.723 68.4737 257.824 68.5804C257.951 68.7125 258.292 69.0463 258.233 69.1907C258.174 69.3351 257.576 68.7888 257.576 68.7888L257.284 68.6244C257.647 68.9804 258.343 69.4491 258.243 69.6198C258.143 69.7905 257.517 69.3106 257.071 68.9841C257.455 69.3301 257.931 69.9495 257.821 70.0462C257.723 70.1329 257.181 69.4159 256.602 69.2093C256.388 69.133 256.174 69.3455 256.005 69.3705C255.881 69.3891 255.69 69.4291 255.568 69.3946L254.942 69.217C254.728 69.2361 254.723 69.3628 254.507 69.4086C254.257 69.4618 253.847 69.5176 253.528 69.5957C251.692 70.0439 251.08 70.2523 250.519 70.2519C248.818 70.2542 248.719 60.8999 250.243 60.3286Z" fill="#B6703C"/>
<path d="M249.019 65.7823C248.898 63.3329 248.916 60.3141 250.29 59.7987C250.832 59.5958 251.789 60.8177 251.615 65.8318C250.881 65.8945 249.804 65.9399 249.019 65.7823Z" fill="#B6C462"/>
<path d="M256.702 64.73H256.562L254.458 69.9007L254.603 69.8785L256.702 64.73Z" fill="#F79C8D"/>
<path d="M259.838 82.1172C259.838 82.1172 259.647 82.7288 259.988 83.133C260.33 83.5371 261.749 83.9336 261.935 84.1524C262.121 84.3713 262.107 84.5579 262.107 84.5579L258.125 84.4485L258.171 83.2461L258.352 82.3833L259.838 82.1172Z" fill="#B6703C"/>
<path d="M260.236 83.3345C260.236 83.3345 259.213 83.7482 258.719 83.503C258.225 83.2578 258.24 83.1901 258.097 83.2818C257.953 83.3736 257.902 84.5002 257.902 84.5002L262.379 84.6319C262.691 84.6246 262.848 84.3953 262.595 84.1987C262.422 84.0624 262.221 83.9739 262.107 83.9085C261.757 83.7078 260.236 83.3345 260.236 83.3345Z" fill="#184655"/>
<path d="M259.685 71.3295C259.993 70.682 260.693 69.8387 261.924 70.3464C263.099 70.8309 263.414 72.0211 263.043 73.2399C262.673 74.4587 260.234 81.6242 260.148 82.6091L258.201 82.6223C258.201 82.6223 258.555 76.9462 258.641 75.5771C258.726 74.2575 259.154 72.4502 259.685 71.3295Z" fill="#3C8F7C"/>
<path d="M262.848 64.73H256.337C256.253 64.7299 256.171 64.7551 256.101 64.8021C256.031 64.8492 255.976 64.9161 255.945 64.9943L253.94 69.8985H250.35C250.302 69.8985 250.256 69.9176 250.222 69.9516C250.188 69.9857 250.169 70.0319 250.169 70.0801C250.169 70.1283 250.188 70.1745 250.222 70.2085C250.256 70.2426 250.302 70.2617 250.35 70.2617H260.567C260.705 70.2616 260.84 70.2217 260.955 70.1468C261.07 70.0718 261.162 69.9651 261.218 69.8394L263.236 65.3271C263.265 65.2624 263.277 65.1917 263.271 65.1213C263.265 65.0508 263.242 64.983 263.204 64.9237C263.165 64.8645 263.112 64.8158 263.05 64.782C262.988 64.7481 262.919 64.7303 262.848 64.73Z" fill="black"/>
<path d="M259.341 67.5875C259.296 67.8078 259.106 67.9553 258.914 67.9167C258.721 67.8781 258.601 67.6679 258.645 67.4477C258.689 67.2274 258.88 67.0798 259.073 67.1184C259.265 67.157 259.385 67.3668 259.341 67.5875Z" fill="white"/>
<path d="M255.798 53.4262C255.601 53.3614 255.409 53.2844 255.222 53.1955C255.011 53.0938 254.738 52.9748 254.565 52.948C254.202 52.8922 253.578 52.9294 253.233 53.3036C252.803 53.7695 252.04 53.3876 252.194 55.8279C252.368 58.5897 253.904 58.2863 253.941 58.2396C253.978 58.1928 255.31 56.4727 255.31 56.4727C255.31 56.4727 255.776 57.4917 255.776 57.4544C255.776 57.4172 258.155 54.22 255.798 53.4262Z" fill="#0E2E35"/>
<path d="M254.633 58.4436L254.765 59.4307C254.765 59.4307 255.062 60.8525 254.68 61.1263C254.298 61.4001 253.055 59.3899 253.055 59.3899L253.186 56.8896L254.633 58.4436Z" fill="#B6703C"/>
<path d="M253.147 57.6997C253.463 58.553 254.215 59.077 254.748 59.2804L254.636 58.4435L253.19 56.8892L253.147 57.6997Z" fill="#925A2B"/>
<path d="M254.554 54.1682C255.363 54.0374 256.089 54.6885 256.069 55.4991C256.059 55.9229 256.022 56.3456 255.958 56.7646C255.782 57.904 255.004 58.9071 254.491 58.8176C253.977 58.7281 252.684 57.745 252.912 56.1239C253.055 55.1231 253.704 54.3053 254.554 54.1682Z" fill="#B6703C"/>
<path d="M253.267 56.3171C253.222 56.5678 253.023 56.7422 252.819 56.7063C252.615 56.6704 252.484 56.4388 252.528 56.1882C252.572 55.9375 252.772 55.7636 252.976 55.799C253.181 55.8344 253.31 56.0665 253.267 56.3171Z" fill="#B6703C"/>
<path d="M252.98 55.7996C252.98 55.7996 253.601 55.954 253.832 55.5544C254.062 55.1548 254.887 54.2925 255.935 54.6498C256.984 55.0072 255.012 53.7807 254.929 53.7807C254.845 53.7807 253.839 53.7734 253.839 53.7734C253.839 53.7734 253.063 54.4092 253.035 54.4818C253.007 54.5545 252.785 55.3146 252.785 55.3146L252.98 55.7996Z" fill="#0E2E35"/>
<path d="M254.114 57.4668L255.244 57.6834C255.244 57.6834 255.136 58.1089 254.636 58.0285C254.027 57.93 254.114 57.4668 254.114 57.4668Z" fill="white"/>
<path d="M242.431 44.8696L243.561 45.0858C243.561 45.0858 243.453 45.5117 242.953 45.4313C242.346 45.3342 242.431 44.8696 242.431 44.8696Z" fill="white"/>
<g opacity="0.92" clip-path="url(#clip5)">
<path fill-rule="evenodd" clip-rule="evenodd" d="M326.184 82.0719C327.09 82.1358 328.764 82.3055 330.568 82.4882C333.786 82.8133 337.418 83.1812 338.052 83.0754L338.539 82.9936L338.42 82.5066C338.24 81.7646 336.613 79.1915 335.708 77.7609L335.234 77.0059L334.376 75.6233C333.647 74.4538 332.916 73.2802 332.245 72.0857C333.001 71.0056 334.34 69.6355 335.75 68.4208C337.119 67.2414 338.545 66.2163 339.555 65.7563C340.437 66.8148 342.842 70.8702 344.505 73.6749C345.146 74.7565 345.679 75.6547 345.979 76.1353C347.397 78.4031 347.896 80.8588 347.66 83.1708C347.495 84.7925 346.965 86.3465 346.138 87.7158C345.309 89.0859 344.182 90.272 342.821 91.1567C340.867 92.4274 338.424 93.0843 335.679 92.7916C335.205 92.7412 334.226 92.6588 333.034 92.5589C329.884 92.2941 325.208 91.9009 323.89 91.5711C323.847 90.4779 324.118 88.7187 324.544 86.9353C324.985 85.0885 325.59 83.2327 326.185 82.074L326.184 82.0719Z" fill="#C0D271"/>
</g>
</g>
<defs>
<linearGradient id="paint0_linear" x1="-53.0157" y1="45" x2="417.088" y2="45" gradientUnits="userSpaceOnUse">
<stop stop-color="#2B9D61"/>
<stop offset="1" stop-color="#385B81"/>
</linearGradient>
<clipPath id="clip0">
<rect width="343" height="90" rx="5" fill="white"/>
</clipPath>
<clipPath id="clip1">
<rect width="39.6739" height="37.6902" fill="white" transform="translate(129.59 31.623) rotate(-176.281)"/>
</clipPath>
<clipPath id="clip2">
<rect width="22.3108" height="21.1953" fill="white" transform="matrix(0.258819 -0.965926 -0.965926 -0.258819 14.4727 95.0371)"/>
</clipPath>
<clipPath id="clip3">
<rect width="28.63" height="27.1985" fill="white" transform="translate(165 84.0195) rotate(-41.6816)"/>
</clipPath>
<clipPath id="clip4">
<rect width="30.4791" height="28.9552" fill="white" transform="translate(344 27.5996) rotate(-165.771)"/>
</clipPath>
<clipPath id="clip5">
<rect width="28.4211" height="27" fill="white" transform="translate(322.352 93.752) rotate(-90.7073)"/>
</clipPath>
</defs>
</svg>
