<svg width="25" height="24" viewBox="0 0 25 24" fill="none" xmlns="http://www.w3.org/2000/svg">
      <circle cx="20.5293" cy="4.19926" r="4.19926" fill="#a4d5ad" />
      <path fill-rule="evenodd" clip-rule="evenodd"
            d="M20.9963 9.52485C20.8806 9.53214 20.7639 9.53584 20.6463 9.53584C17.6185 9.53584 15.164 7.0813 15.164 4.05348C15.164 3.69443 15.1985 3.34345 15.2644 3.00366H4.66584C2.08897 3.00366 0 5.09263 0 7.6695V19.3341C0 21.911 2.08897 23.9999 4.66584 23.9999H16.3304C18.9073 23.9999 20.9963 21.911 20.9963 19.3341V9.52485ZM15.6375 12.4028L15.2045 11.8956C15.0808 11.7472 15.0066 11.574 14.9942 11.3884L14.9447 10.7203C14.8705 9.76777 14.1282 9.0255 13.1757 8.95127L12.5076 8.90179C12.3221 8.88942 12.1365 8.81519 12.0004 8.69148L11.4932 8.25849C10.7633 7.63993 9.71175 7.63993 8.98185 8.25849L8.47464 8.69148C8.32618 8.81519 8.15299 8.88942 7.96742 8.90179L7.29938 8.95127C6.3468 9.0255 5.60453 9.76777 5.53031 10.7203L5.48082 11.3884C5.46845 11.574 5.39422 11.7595 5.27051 11.8956L4.83752 12.4028C4.21897 13.1327 4.21897 14.1843 4.83752 14.9142L5.27051 15.4214C5.39422 15.5698 5.46845 15.743 5.48082 15.9286L5.53031 16.5966C5.60453 17.5492 6.3468 18.2915 7.29938 18.3657L7.96742 18.4152C8.15299 18.4276 8.33855 18.5018 8.47464 18.6255L8.98185 19.0585C9.34062 19.3678 9.78598 19.5286 10.2313 19.5286C10.6767 19.5286 11.1221 19.3678 11.4808 19.0585L11.988 18.6255C12.1365 18.5018 12.3097 18.4276 12.4953 18.4152L13.1633 18.3657C14.1159 18.2915 14.8581 17.5492 14.9324 16.5966L14.9819 15.9286C14.9942 15.743 15.0684 15.5575 15.1922 15.4214L15.6252 14.9142C16.2684 14.1843 16.2684 13.1203 15.6375 12.4028ZM14.8458 14.2337L14.4128 14.741C14.1406 15.0502 13.9922 15.4337 13.955 15.842L13.9056 16.51C13.8685 16.9554 13.5221 17.2894 13.0891 17.3265L12.421 17.376C12.0128 17.4131 11.6293 17.5616 11.32 17.8337L10.8128 18.2667C10.4788 18.5513 9.98391 18.5513 9.64989 18.2667L9.14268 17.8337C8.8334 17.5616 8.44989 17.4131 8.04165 17.376L7.37361 17.3265C6.92824 17.2894 6.59422 16.943 6.55711 16.51L6.50763 15.842C6.47051 15.4337 6.32206 15.0502 6.04989 14.741L5.6169 14.2337C5.33237 13.8997 5.33237 13.4049 5.6169 13.0709L6.04989 12.5636C6.32206 12.2544 6.47051 11.8709 6.50763 11.4626L6.55711 10.7946C6.59422 10.3492 6.94062 10.0152 7.37361 9.97808L8.04165 9.92859C8.44989 9.89148 8.8334 9.74303 9.14268 9.47086L9.64989 9.03787C9.82309 8.88942 10.021 8.82756 10.2313 8.82756C10.4416 8.82756 10.6396 8.90179 10.8128 9.03787L11.32 9.47086C11.6293 9.74303 12.0128 9.89148 12.421 9.92859L13.0891 9.97808C13.5344 10.0152 13.8685 10.3616 13.9056 10.7946L13.955 11.4626C13.9922 11.8709 14.1406 12.2544 14.4128 12.5636L14.8458 13.0709C15.1427 13.4049 15.1427 13.8997 14.8458 14.2337ZM11.6786 11.4749C11.8765 11.277 12.2106 11.277 12.4085 11.4749C12.6188 11.6729 12.6188 12.0069 12.4209 12.2048L8.79613 15.8296C8.68479 15.9285 8.56108 15.978 8.425 15.978C8.28892 15.978 8.15284 15.9285 8.05387 15.8296C7.85593 15.6316 7.85593 15.2976 8.05387 15.0997L11.6786 11.4749ZM8.54772 12.8482C9.03281 12.8482 9.42607 12.4549 9.42607 11.9698C9.42607 11.4847 9.03281 11.0915 8.54772 11.0915C8.06262 11.0915 7.66936 11.4847 7.66936 11.9698C7.66936 12.4549 8.06262 12.8482 8.54772 12.8482ZM12.791 15.3348C12.791 15.8199 12.3978 16.2131 11.9127 16.2131C11.4276 16.2131 11.0343 15.8199 11.0343 15.3348C11.0343 14.8497 11.4276 14.4564 11.9127 14.4564C12.3978 14.4564 12.791 14.8497 12.791 15.3348Z"
            fill="#54ab68" />
</svg>