<svg width="40" height="40" viewBox="0 0 40 40" fill="none" xmlns="http://www.w3.org/2000/svg">
      <path fill-rule="evenodd" clip-rule="evenodd"
            d="M22 30C30.2843 30 37 23.2843 37 15C37 6.71573 30.2843 0 22 0C13.7157 0 7 6.71573 7 15C7 23.2843 13.7157 30 22 30ZM30.021 11.8387C30.4842 11.3647 30.4755 10.605 30.0015 10.1418C29.5275 9.67856 28.7678 9.6873 28.3046 10.1613L21.6628 16.9575L18.8582 14.0877C18.395 13.6137 17.6353 13.605 17.1613 14.0682C16.6873 14.5314 16.6786 15.2912 17.1418 15.7652L20.8046 19.5131C21.0304 19.7442 21.3397 19.8744 21.6628 19.8744C21.9858 19.8744 22.2952 19.7442 22.521 19.5131L30.021 11.8387Z"
            fill="#54AB68" />
      <line x1="1.2" y1="10.8" x2="12.7535" y2="10.8" stroke="#C0D271" stroke-width="2.4" stroke-linecap="round" />
      <line x1="3.99065" y1="14.986" x2="12.7534" y2="14.986" stroke="#C0D271" stroke-width="2.4"
            stroke-linecap="round" />
      <line x1="6.78142" y1="19.1721" x2="12.7535" y2="19.1721" stroke="#C0D271" stroke-width="2.4"
            stroke-linecap="round" />
</svg>