<svg width="45" height="45" fill="#f5fdf5" xmlns="http://www.w3.org/2000/svg">
<circle cx="20.5047" cy="4.19416" r="4.19416" fill="#c1f2bb"/>
<path d="M10.4854 15.4051C9.44115 15.4051 8.59475 14.5587
8.59475 13.5145C8.59475 12.4702 9.44115 11.6238 10.4854
11.6238C11.5296 11.6238 12.376 12.4702 12.376 13.5145C12.376
14.5587 11.5296 15.4051 10.4854 15.4051Z" fill="#c1f2bb"/>
<path fill-rule="evenodd" clip-rule="evenodd"
d="M20.6213 9.55331C20.7387 9.55331 20.8552 9.54961 20.9708
9.54233V19.3397C20.9708 21.9134 18.8844 23.9999 16.3106
23.9999H4.66018C2.08643 23.9999 0 21.9134 0 19.3397V7.68923C0
5.11549 2.08643 3.02905 4.66018 3.02905H15.2459C15.1801 3.36843
15.1456 3.71898 15.1456 4.07759C15.1456 7.10175 17.5971 9.55331
20.6213 9.55331ZM6.83387 8.83413L8.34275 10.343C8.95411 9.92918
9.69151 9.68749 10.4854 9.68749C11.2793 9.68749 12.0167 9.92918
12.628 10.343L14.1369 8.83414C14.421 8.55033 14.8816 8.55033 15.1657
8.83414C15.3074 8.97622 15.3786 9.16238 15.3786 9.34853C15.3786 9.53469
15.3074 9.72087 15.1657 9.86293L13.6568 11.3718C14.0706 11.9832 14.3123
12.7206 14.3123 13.5145C14.3123 14.3083 14.0707 15.0457 13.6568
15.6571L15.1657 17.1659C15.4495 17.4501 15.4495 17.9106 15.1657 18.1947C15.0236
18.3365 14.8374 18.4077 14.6513 18.4077C14.4651 18.4077 14.2789 18.3365
14.1369 18.1947L12.628 16.6859C12.0167 17.0997 11.2793 17.3414 10.4854
17.3414C9.69149 17.3414 8.95408 17.0997 8.34272 16.6859L6.83387 18.1947C6.54972
18.4785 6.08919 18.4785 5.80508 18.1947C5.52126 17.9106 5.52126 17.45 5.80508
17.1659L7.31393 15.6571C6.90011 15.0457 6.65842 14.3083 6.65842 13.5145C6.65842
12.7206 6.90012 11.9832 7.31396 11.3718L5.80508 9.86292C5.52126 9.57878
5.52126 9.11824 5.80508 8.83413C6.08922 8.55032 6.54975 8.55032 6.83387 8.83413Z" fill="#c1f2bb"/>
</svg>
