<svg width="44" height="43" viewBox="0 0 44 43" fill="none" xmlns="http://www.w3.org/2000/svg">
<g opacity="0.6">
<path d="M12.8008 0V10.2222H7.10558L6.66748 10.0202V6.13333L12.8008 0Z" fill="#595959"/>
<path d="M31.2002 42.9336L31.2002 32.7114L36.8954 32.7114L37.3335 32.9134L37.3335 36.8003L31.2002 42.9336Z" fill="#595959"/>
<path d="M34.5564 6.13281H6.66748V14.3106H37.3341V8.91059C37.3341 7.37647 36.0905 6.13281 34.5564 6.13281Z" fill="#929292"/>
<path d="M42.0776 16.3555H1.92209C1.15503 16.3555 0.533203 16.9773 0.533203 17.7444V25.1888C0.533203 25.9559 1.15503 26.5777 1.92209 26.5777H42.0776C42.8447 26.5777 43.4665 25.9559 43.4665 25.1888V17.7444C43.4665 16.9773 42.8447 16.3555 42.0776 16.3555Z" fill="#CFCFCF"/>
<path d="M9.44461 36.8008L37.3335 36.8008L37.3335 28.623L6.66683 28.623L6.66683 34.023C6.66683 35.5571 7.91048 36.8008 9.44461 36.8008Z" fill="#929292"/>
</g>
</svg>
